<svg width="4342" height="1855" viewBox="0 0 4342 1855" fill="none" xmlns="http://www.w3.org/2000/svg">
<g clip-path="url(#clip0_301_19)">
<rect width="4342" height="1855" fill="white"/>
<rect width="4342" height="2736" fill="#E8F8FF"/>
<rect x="239" y="208" width="3782" height="1439" rx="18" fill="white" stroke="#4DA8D3" stroke-width="24"/>
<path d="M510.955 448L480.318 407.318H472.045V448H455.182V354.909H472.045V393.182H476.273L509.364 354.909H530.136L493.364 397.364L531.727 448H510.955ZM567.784 449.364C560.966 449.364 555.057 447.864 550.057 444.864C545.057 441.864 541.178 437.667 538.42 432.273C535.693 426.879 534.33 420.576 534.33 413.364C534.33 406.152 535.693 399.833 538.42 394.409C541.178 388.985 545.057 384.773 550.057 381.773C555.057 378.773 560.966 377.273 567.784 377.273C574.602 377.273 580.511 378.773 585.511 381.773C590.511 384.773 594.375 388.985 597.102 394.409C599.86 399.833 601.239 406.152 601.239 413.364C601.239 420.576 599.86 426.879 597.102 432.273C594.375 437.667 590.511 441.864 585.511 444.864C580.511 447.864 574.602 449.364 567.784 449.364ZM567.875 436.182C571.572 436.182 574.663 435.167 577.148 433.136C579.633 431.076 581.481 428.318 582.693 424.864C583.936 421.409 584.557 417.561 584.557 413.318C584.557 409.045 583.936 405.182 582.693 401.727C581.481 398.242 579.633 395.47 577.148 393.409C574.663 391.348 571.572 390.318 567.875 390.318C564.087 390.318 560.936 391.348 558.42 393.409C555.936 395.47 554.072 398.242 552.83 401.727C551.617 405.182 551.011 409.045 551.011 413.318C551.011 417.561 551.617 421.409 552.83 424.864C554.072 428.318 555.936 431.076 558.42 433.136C560.936 435.167 564.087 436.182 567.875 436.182ZM615.205 448V378.182H674.159V448H658.295V391.682H630.932V448H615.205ZM706.943 425.727L734.898 378.182H751.807V448H735.898V400.409L708.034 448H691.08V378.182H706.943V425.727ZM768.705 474.182V378.182H784.886V389.727H785.841C786.689 388.03 787.886 386.227 789.432 384.318C790.977 382.379 793.068 380.727 795.705 379.364C798.341 377.97 801.705 377.273 805.795 377.273C811.189 377.273 816.053 378.652 820.386 381.409C824.75 384.136 828.205 388.182 830.75 393.545C833.326 398.879 834.614 405.424 834.614 413.182C834.614 420.848 833.356 427.364 830.841 432.727C828.326 438.091 824.902 442.182 820.568 445C816.235 447.818 811.326 449.227 805.841 449.227C801.841 449.227 798.523 448.561 795.886 447.227C793.25 445.894 791.129 444.288 789.523 442.409C787.947 440.5 786.72 438.697 785.841 437H785.159V474.182H768.705ZM784.841 413.091C784.841 417.606 785.477 421.561 786.75 424.955C788.053 428.348 789.917 431 792.341 432.909C794.795 434.788 797.765 435.727 801.25 435.727C804.886 435.727 807.932 434.758 810.386 432.818C812.841 430.848 814.689 428.167 815.932 424.773C817.205 421.348 817.841 417.455 817.841 413.091C817.841 408.758 817.22 404.909 815.977 401.545C814.735 398.182 812.886 395.545 810.432 393.636C807.977 391.727 804.917 390.773 801.25 390.773C797.735 390.773 794.75 391.697 792.295 393.545C789.841 395.394 787.977 397.985 786.705 401.318C785.462 404.652 784.841 408.576 784.841 413.091ZM879.159 449.364C872.341 449.364 866.432 447.864 861.432 444.864C856.432 441.864 852.553 437.667 849.795 432.273C847.068 426.879 845.705 420.576 845.705 413.364C845.705 406.152 847.068 399.833 849.795 394.409C852.553 388.985 856.432 384.773 861.432 381.773C866.432 378.773 872.341 377.273 879.159 377.273C885.977 377.273 891.886 378.773 896.886 381.773C901.886 384.773 905.75 388.985 908.477 394.409C911.235 399.833 912.614 406.152 912.614 413.364C912.614 420.576 911.235 426.879 908.477 432.273C905.75 437.667 901.886 441.864 896.886 444.864C891.886 447.864 885.977 449.364 879.159 449.364ZM879.25 436.182C882.947 436.182 886.038 435.167 888.523 433.136C891.008 431.076 892.856 428.318 894.068 424.864C895.311 421.409 895.932 417.561 895.932 413.318C895.932 409.045 895.311 405.182 894.068 401.727C892.856 398.242 891.008 395.47 888.523 393.409C886.038 391.348 882.947 390.318 879.25 390.318C875.462 390.318 872.311 391.348 869.795 393.409C867.311 395.47 865.447 398.242 864.205 401.727C862.992 405.182 862.386 409.045 862.386 413.318C862.386 417.561 862.992 421.409 864.205 424.864C865.447 428.318 867.311 431.076 869.795 433.136C872.311 435.167 875.462 436.182 879.25 436.182ZM926.58 448V378.182H955.898C964.17 378.182 970.701 379.833 975.489 383.136C980.307 386.439 982.716 391.045 982.716 396.955C982.716 400.864 981.352 404.061 978.625 406.545C975.928 409 972.246 410.652 967.58 411.5C971.246 411.803 974.458 412.727 977.216 414.273C980.004 415.818 982.186 417.848 983.761 420.364C985.337 422.879 986.125 425.773 986.125 429.045C986.125 432.894 985.11 436.242 983.08 439.091C981.08 441.909 978.155 444.106 974.307 445.682C970.489 447.227 965.852 448 960.398 448H926.58ZM941.989 435.045H960.398C963.428 435.045 965.807 434.333 967.534 432.909C969.261 431.455 970.125 429.485 970.125 427C970.125 424.121 969.261 421.864 967.534 420.227C965.807 418.561 963.428 417.727 960.398 417.727H941.989V435.045ZM941.989 407.091H956.216C958.458 407.091 960.383 406.773 961.989 406.136C963.595 405.47 964.822 404.545 965.67 403.364C966.519 402.152 966.943 400.712 966.943 399.045C966.943 396.652 965.958 394.773 963.989 393.409C962.049 392.045 959.352 391.364 955.898 391.364H941.989V407.091ZM1019.8 449.409C1015.37 449.409 1011.39 448.621 1007.84 447.045C1004.33 445.439 1001.54 443.076 999.477 439.955C997.447 436.833 996.432 432.985 996.432 428.409C996.432 424.47 997.159 421.212 998.614 418.636C1000.07 416.061 1002.05 414 1004.57 412.455C1007.08 410.909 1009.92 409.742 1013.07 408.955C1016.25 408.136 1019.54 407.545 1022.93 407.182C1027.02 406.758 1030.34 406.379 1032.89 406.045C1035.43 405.682 1037.28 405.136 1038.43 404.409C1039.61 403.652 1040.2 402.485 1040.2 400.909V400.636C1040.2 397.212 1039.19 394.561 1037.16 392.682C1035.13 390.803 1032.2 389.864 1028.39 389.864C1024.36 389.864 1021.16 390.742 1018.8 392.5C1016.46 394.258 1014.89 396.333 1014.07 398.727L998.705 396.545C999.917 392.303 1001.92 388.758 1004.7 385.909C1007.49 383.03 1010.9 380.879 1014.93 379.455C1018.96 378 1023.42 377.273 1028.3 377.273C1031.66 377.273 1035.01 377.667 1038.34 378.455C1041.67 379.242 1044.72 380.545 1047.48 382.364C1050.23 384.152 1052.45 386.591 1054.11 389.682C1055.81 392.773 1056.66 396.636 1056.66 401.273V448H1040.84V438.409H1040.3C1039.3 440.348 1037.89 442.167 1036.07 443.864C1034.28 445.53 1032.02 446.879 1029.3 447.909C1026.6 448.909 1023.43 449.409 1019.8 449.409ZM1024.07 437.318C1027.37 437.318 1030.23 436.667 1032.66 435.364C1035.08 434.03 1036.95 432.273 1038.25 430.091C1039.58 427.909 1040.25 425.53 1040.25 422.955V414.727C1039.73 415.152 1038.86 415.545 1037.61 415.909C1036.4 416.273 1035.04 416.591 1033.52 416.864C1032.01 417.136 1030.51 417.379 1029.02 417.591C1027.54 417.803 1026.25 417.985 1025.16 418.136C1022.7 418.47 1020.51 419.015 1018.57 419.773C1016.63 420.53 1015.1 421.591 1013.98 422.955C1012.86 424.288 1012.3 426.015 1012.3 428.136C1012.3 431.167 1013.4 433.455 1015.61 435C1017.83 436.545 1020.64 437.318 1024.07 437.318ZM1121.16 406.273V419.773H1083.98V406.273H1121.16ZM1089.07 378.182V448H1073.2V378.182H1089.07ZM1131.93 378.182V448H1116.11V378.182H1131.93ZM1164.44 425.727L1192.4 378.182H1209.31V448H1193.4V400.409L1165.53 448H1148.58V378.182H1164.44V425.727ZM1257.11 449.364C1250.11 449.364 1244.07 447.909 1238.98 445C1233.92 442.061 1230.02 437.909 1227.3 432.545C1224.57 427.152 1223.2 420.803 1223.2 413.5C1223.2 406.318 1224.57 400.015 1227.3 394.591C1230.05 389.136 1233.9 384.894 1238.84 381.864C1243.78 378.803 1249.58 377.273 1256.25 377.273C1260.55 377.273 1264.61 377.97 1268.43 379.364C1272.28 380.727 1275.67 382.848 1278.61 385.727C1281.58 388.606 1283.92 392.273 1285.61 396.727C1287.31 401.152 1288.16 406.424 1288.16 412.545V417.591H1230.93V406.5H1272.39C1272.36 403.348 1271.67 400.545 1270.34 398.091C1269.01 395.606 1267.14 393.652 1264.75 392.227C1262.39 390.803 1259.63 390.091 1256.48 390.091C1253.11 390.091 1250.16 390.909 1247.61 392.545C1245.07 394.152 1243.08 396.273 1241.66 398.909C1240.27 401.515 1239.55 404.379 1239.52 407.5V417.182C1239.52 421.242 1240.27 424.727 1241.75 427.636C1243.23 430.515 1245.31 432.727 1247.98 434.273C1250.64 435.788 1253.77 436.545 1257.34 436.545C1259.73 436.545 1261.9 436.212 1263.84 435.545C1265.78 434.848 1267.46 433.833 1268.89 432.5C1270.31 431.167 1271.39 429.515 1272.11 427.545L1287.48 429.273C1286.51 433.333 1284.66 436.879 1281.93 439.909C1279.23 442.909 1275.78 445.242 1271.57 446.909C1267.36 448.545 1262.54 449.364 1257.11 449.364ZM1364.28 449.364C1357.31 449.364 1351.33 447.833 1346.33 444.773C1341.36 441.712 1337.53 437.485 1334.83 432.091C1332.16 426.667 1330.83 420.424 1330.83 413.364C1330.83 406.273 1332.19 400.015 1334.92 394.591C1337.65 389.136 1341.5 384.894 1346.47 381.864C1351.47 378.803 1357.38 377.273 1364.19 377.273C1369.86 377.273 1374.88 378.318 1379.24 380.409C1383.63 382.47 1387.13 385.394 1389.74 389.182C1392.34 392.939 1393.83 397.333 1394.19 402.364H1378.47C1377.83 399 1376.31 396.197 1373.92 393.955C1371.56 391.682 1368.39 390.545 1364.42 390.545C1361.06 390.545 1358.1 391.455 1355.56 393.273C1353.01 395.061 1351.03 397.636 1349.6 401C1348.21 404.364 1347.51 408.394 1347.51 413.091C1347.51 417.848 1348.21 421.939 1349.6 425.364C1351 428.758 1352.95 431.379 1355.47 433.227C1358.01 435.045 1361 435.955 1364.42 435.955C1366.84 435.955 1369.01 435.5 1370.92 434.591C1372.86 433.652 1374.48 432.303 1375.78 430.545C1377.09 428.788 1377.98 426.652 1378.47 424.136H1394.19C1393.8 429.076 1392.34 433.455 1389.83 437.273C1387.31 441.061 1383.89 444.03 1379.56 446.182C1375.22 448.303 1370.13 449.364 1364.28 449.364ZM1439.45 448V378.182H1498.41V448H1482.55V391.682H1455.18V448H1439.45ZM1545.78 449.364C1538.97 449.364 1533.06 447.864 1528.06 444.864C1523.06 441.864 1519.18 437.667 1516.42 432.273C1513.69 426.879 1512.33 420.576 1512.33 413.364C1512.33 406.152 1513.69 399.833 1516.42 394.409C1519.18 388.985 1523.06 384.773 1528.06 381.773C1533.06 378.773 1538.97 377.273 1545.78 377.273C1552.6 377.273 1558.51 378.773 1563.51 381.773C1568.51 384.773 1572.38 388.985 1575.1 394.409C1577.86 399.833 1579.24 406.152 1579.24 413.364C1579.24 420.576 1577.86 426.879 1575.1 432.273C1572.38 437.667 1568.51 441.864 1563.51 444.864C1558.51 447.864 1552.6 449.364 1545.78 449.364ZM1545.88 436.182C1549.57 436.182 1552.66 435.167 1555.15 433.136C1557.63 431.076 1559.48 428.318 1560.69 424.864C1561.94 421.409 1562.56 417.561 1562.56 413.318C1562.56 409.045 1561.94 405.182 1560.69 401.727C1559.48 398.242 1557.63 395.47 1555.15 393.409C1552.66 391.348 1549.57 390.318 1545.88 390.318C1542.09 390.318 1538.94 391.348 1536.42 393.409C1533.94 395.47 1532.07 398.242 1530.83 401.727C1529.62 405.182 1529.01 409.045 1529.01 413.318C1529.01 417.561 1529.62 421.409 1530.83 424.864C1532.07 428.318 1533.94 431.076 1536.42 433.136C1538.94 435.167 1542.09 436.182 1545.88 436.182ZM1633.39 428.864L1654.11 378.182H1667.39L1639.16 448H1627.66L1600.07 378.182H1613.2L1633.39 428.864ZM1609.07 378.182V448H1593.2V378.182H1609.07ZM1658.39 448V378.182H1674.11V448H1658.39ZM1721.16 449.364C1714.34 449.364 1708.43 447.864 1703.43 444.864C1698.43 441.864 1694.55 437.667 1691.8 432.273C1689.07 426.879 1687.7 420.576 1687.7 413.364C1687.7 406.152 1689.07 399.833 1691.8 394.409C1694.55 388.985 1698.43 384.773 1703.43 381.773C1708.43 378.773 1714.34 377.273 1721.16 377.273C1727.98 377.273 1733.89 378.773 1738.89 381.773C1743.89 384.773 1747.75 388.985 1750.48 394.409C1753.23 399.833 1754.61 406.152 1754.61 413.364C1754.61 420.576 1753.23 426.879 1750.48 432.273C1747.75 437.667 1743.89 441.864 1738.89 444.864C1733.89 447.864 1727.98 449.364 1721.16 449.364ZM1721.25 436.182C1724.95 436.182 1728.04 435.167 1730.52 433.136C1733.01 431.076 1734.86 428.318 1736.07 424.864C1737.31 421.409 1737.93 417.561 1737.93 413.318C1737.93 409.045 1737.31 405.182 1736.07 401.727C1734.86 398.242 1733.01 395.47 1730.52 393.409C1728.04 391.348 1724.95 390.318 1721.25 390.318C1717.46 390.318 1714.31 391.348 1711.8 393.409C1709.31 395.47 1707.45 398.242 1706.2 401.727C1704.99 405.182 1704.39 409.045 1704.39 413.318C1704.39 417.561 1704.99 421.409 1706.2 424.864C1707.45 428.318 1709.31 431.076 1711.8 433.136C1714.31 435.167 1717.46 436.182 1721.25 436.182ZM1873.44 434.5L1872.08 468H1856.58V448H1848.35V434.5H1873.44ZM1768.58 378.182H1784.44V434.455H1806.4V378.182H1822.26V434.455H1844.22V378.182H1860.08V448H1768.58V378.182ZM1897.59 400.909H1918.18C1927.09 400.909 1933.98 403.076 1938.86 407.409C1943.74 411.742 1946.2 417.424 1946.23 424.455C1946.2 429.03 1945.08 433.091 1942.86 436.636C1940.68 440.182 1937.5 442.97 1933.32 445C1929.17 447 1924.12 448 1918.18 448H1886.45V378.182H1902.32V434.5H1918.18C1921.76 434.5 1924.7 433.591 1927 431.773C1929.3 429.924 1930.45 427.561 1930.45 424.682C1930.45 421.652 1929.3 419.182 1927 417.273C1924.7 415.364 1921.76 414.409 1918.18 414.409H1897.59V400.909ZM1997.19 406.773V420.318H1959.6V406.773H1997.19ZM1972.65 378.182V448H1956.15V378.182H1972.65ZM2018.28 449.364C2011.56 449.364 2005.72 447.833 2000.78 444.773C1995.88 441.712 1992.07 437.47 1989.38 432.045C1986.68 426.621 1985.33 420.348 1985.33 413.227C1985.33 406.106 1986.68 399.848 1989.38 394.455C1992.07 389.061 1995.88 384.848 2000.78 381.818C2005.72 378.788 2011.56 377.273 2018.28 377.273C2024.98 377.273 2030.78 378.788 2035.69 381.818C2040.63 384.848 2044.45 389.061 2047.15 394.455C2049.88 399.848 2051.24 406.106 2051.24 413.227C2051.24 420.348 2049.88 426.621 2047.15 432.045C2044.45 437.47 2040.63 441.712 2035.69 444.773C2030.78 447.833 2024.98 449.364 2018.28 449.364ZM2018.28 435.727C2022.25 435.727 2025.5 434.727 2028.01 432.727C2030.53 430.727 2032.38 428.03 2033.56 424.636C2034.74 421.242 2035.33 417.439 2035.33 413.227C2035.33 409.015 2034.74 405.212 2033.56 401.818C2032.38 398.424 2030.53 395.742 2028.01 393.773C2025.5 391.773 2022.25 390.773 2018.28 390.773C2014.28 390.773 2011.01 391.773 2008.47 393.773C2005.95 395.742 2004.1 398.424 2002.92 401.818C2001.74 405.212 2001.15 409.015 2001.15 413.227C2001.15 417.47 2001.74 421.288 2002.92 424.682C2004.1 428.076 2005.95 430.773 2008.47 432.773C2011.01 434.742 2014.28 435.727 2018.28 435.727ZM2097.58 448V378.182H2114.03V406.364H2120.03L2141.03 378.182H2160.85L2134.99 412.455L2161.12 448H2141.22L2122.08 421.682H2114.03V448H2097.58ZM2165.64 448L2165.55 434.455H2167.95C2169.77 434.455 2171.3 434.045 2172.55 433.227C2173.79 432.409 2174.82 431.045 2175.64 429.136C2176.45 427.197 2177.09 424.591 2177.55 421.318C2178 418.045 2178.32 413.97 2178.5 409.091L2179.73 378.182H2230.64V448H2214.73V391.682H2194.68L2193.59 414.182C2193.32 420 2192.67 425.045 2191.64 429.318C2190.64 433.561 2189.21 437.061 2187.36 439.818C2185.55 442.576 2183.26 444.636 2180.5 446C2177.74 447.333 2174.48 448 2170.73 448H2165.64ZM2267.3 449.409C2262.87 449.409 2258.89 448.621 2255.34 447.045C2251.83 445.439 2249.04 443.076 2246.98 439.955C2244.95 436.833 2243.93 432.985 2243.93 428.409C2243.93 424.47 2244.66 421.212 2246.11 418.636C2247.57 416.061 2249.55 414 2252.07 412.455C2254.58 410.909 2257.42 409.742 2260.57 408.955C2263.75 408.136 2267.04 407.545 2270.43 407.182C2274.52 406.758 2277.84 406.379 2280.39 406.045C2282.93 405.682 2284.78 405.136 2285.93 404.409C2287.11 403.652 2287.7 402.485 2287.7 400.909V400.636C2287.7 397.212 2286.69 394.561 2284.66 392.682C2282.63 390.803 2279.7 389.864 2275.89 389.864C2271.86 389.864 2268.66 390.742 2266.3 392.5C2263.96 394.258 2262.39 396.333 2261.57 398.727L2246.2 396.545C2247.42 392.303 2249.42 388.758 2252.2 385.909C2254.99 383.03 2258.4 380.879 2262.43 379.455C2266.46 378 2270.92 377.273 2275.8 377.273C2279.16 377.273 2282.51 377.667 2285.84 378.455C2289.17 379.242 2292.22 380.545 2294.98 382.364C2297.73 384.152 2299.95 386.591 2301.61 389.682C2303.31 392.773 2304.16 396.636 2304.16 401.273V448H2288.34V438.409H2287.8C2286.8 440.348 2285.39 442.167 2283.57 443.864C2281.78 445.53 2279.52 446.879 2276.8 447.909C2274.1 448.909 2270.93 449.409 2267.3 449.409ZM2271.57 437.318C2274.87 437.318 2277.73 436.667 2280.16 435.364C2282.58 434.03 2284.45 432.273 2285.75 430.091C2287.08 427.909 2287.75 425.53 2287.75 422.955V414.727C2287.23 415.152 2286.36 415.545 2285.11 415.909C2283.9 416.273 2282.54 416.591 2281.02 416.864C2279.51 417.136 2278.01 417.379 2276.52 417.591C2275.04 417.803 2273.75 417.985 2272.66 418.136C2270.2 418.47 2268.01 419.015 2266.07 419.773C2264.13 420.53 2262.6 421.591 2261.48 422.955C2260.36 424.288 2259.8 426.015 2259.8 428.136C2259.8 431.167 2260.9 433.455 2263.11 435C2265.33 436.545 2268.14 437.318 2271.57 437.318ZM2320.7 448V378.182H2350.02C2358.3 378.182 2364.83 379.833 2369.61 383.136C2374.43 386.439 2376.84 391.045 2376.84 396.955C2376.84 400.864 2375.48 404.061 2372.75 406.545C2370.05 409 2366.37 410.652 2361.7 411.5C2365.37 411.803 2368.58 412.727 2371.34 414.273C2374.13 415.818 2376.31 417.848 2377.89 420.364C2379.46 422.879 2380.25 425.773 2380.25 429.045C2380.25 432.894 2379.23 436.242 2377.2 439.091C2375.2 441.909 2372.28 444.106 2368.43 445.682C2364.61 447.227 2359.98 448 2354.52 448H2320.7ZM2336.11 435.045H2354.52C2357.55 435.045 2359.93 434.333 2361.66 432.909C2363.39 431.455 2364.25 429.485 2364.25 427C2364.25 424.121 2363.39 421.864 2361.66 420.227C2359.93 418.561 2357.55 417.727 2354.52 417.727H2336.11V435.045ZM2336.11 407.091H2350.34C2352.58 407.091 2354.51 406.773 2356.11 406.136C2357.72 405.47 2358.95 404.545 2359.8 403.364C2360.64 402.152 2361.07 400.712 2361.07 399.045C2361.07 396.652 2360.08 394.773 2358.11 393.409C2356.17 392.045 2353.48 391.364 2350.02 391.364H2336.11V407.091ZM2409.69 425.727L2437.65 378.182H2454.56V448H2438.65V400.409L2410.78 448H2393.83V378.182H2409.69V425.727ZM2471.45 378.182H2487.32V434.455H2509.27V378.182H2525.14V434.455H2547.09V378.182H2562.95V448H2471.45V378.182Z" fill="#175F87"/>
<path d="M488.364 670.909V764H477.091V682.727H476.545L453.818 697.818V686.364L477.091 670.909H488.364ZM538.227 717.455C538.227 728.909 536.727 739.455 533.727 749.091C530.758 758.697 526.5 767.545 520.955 775.636H511.5C513.682 772.636 515.712 768.939 517.591 764.545C519.5 760.182 521.167 755.394 522.591 750.182C524.015 744.939 525.121 739.53 525.909 733.955C526.727 728.348 527.136 722.848 527.136 717.455C527.136 710.242 526.439 702.924 525.045 695.5C523.652 688.076 521.773 681.182 519.409 674.818C517.045 668.455 514.409 663.273 511.5 659.273H520.955C526.5 667.364 530.758 676.227 533.727 685.864C536.727 695.47 538.227 706 538.227 717.455ZM599.148 764V670.909H631.693C638.178 670.909 643.527 672.03 647.739 674.273C651.951 676.485 655.087 679.47 657.148 683.227C659.208 686.955 660.239 691.091 660.239 695.636C660.239 699.636 659.527 702.939 658.102 705.545C656.708 708.152 654.86 710.212 652.557 711.727C650.284 713.242 647.814 714.364 645.148 715.091V716C647.996 716.182 650.86 717.182 653.739 719C656.617 720.818 659.027 723.424 660.966 726.818C662.905 730.212 663.875 734.364 663.875 739.273C663.875 743.939 662.814 748.136 660.693 751.864C658.572 755.591 655.223 758.545 650.648 760.727C646.072 762.909 640.117 764 632.784 764H599.148ZM610.42 754H632.784C640.148 754 645.375 752.576 648.466 749.727C651.587 746.848 653.148 743.364 653.148 739.273C653.148 736.121 652.345 733.212 650.739 730.545C649.133 727.848 646.845 725.697 643.875 724.091C640.905 722.455 637.39 721.636 633.33 721.636H610.42V754ZM610.42 711.818H631.33C634.723 711.818 637.784 711.152 640.511 709.818C643.269 708.485 645.451 706.606 647.057 704.182C648.693 701.758 649.511 698.909 649.511 695.636C649.511 691.545 648.087 688.076 645.239 685.227C642.39 682.348 637.875 680.909 631.693 680.909H610.42V711.818ZM690.216 719.455H710.216C718.398 719.455 724.655 721.53 728.989 725.682C733.322 729.833 735.489 735.091 735.489 741.455C735.489 745.636 734.519 749.439 732.58 752.864C730.64 756.258 727.792 758.97 724.034 761C720.277 763 715.67 764 710.216 764H680.943V694.182H691.67V754H710.216C714.458 754 717.943 752.879 720.67 750.636C723.398 748.394 724.761 745.515 724.761 742C724.761 738.303 723.398 735.288 720.67 732.955C717.943 730.621 714.458 729.455 710.216 729.455H690.216V719.455ZM746.58 764V694.182H757.307V764H746.58ZM769.489 784V754H775.307C776.731 752.515 777.958 750.909 778.989 749.182C780.019 747.455 780.913 745.409 781.67 743.045C782.458 740.652 783.125 737.742 783.67 734.318C784.216 730.864 784.701 726.697 785.125 721.818L787.489 694.182H831.852V754H842.58V784H831.852V764H780.216V784H769.489ZM787.489 754H821.125V704.182H797.489L795.67 721.818C794.913 729.121 793.973 735.5 792.852 740.955C791.731 746.409 789.943 750.758 787.489 754ZM886.091 765.455C879.364 765.455 873.561 763.97 868.682 761C863.833 758 860.091 753.818 857.455 748.455C854.848 743.061 853.545 736.788 853.545 729.636C853.545 722.485 854.848 716.182 857.455 710.727C860.091 705.242 863.758 700.97 868.455 697.909C873.182 694.818 878.697 693.273 885 693.273C888.636 693.273 892.227 693.879 895.773 695.091C899.318 696.303 902.545 698.273 905.455 701C908.364 703.697 910.682 707.273 912.409 711.727C914.136 716.182 915 721.667 915 728.182V732.727H861.182V723.455H904.091C904.091 719.515 903.303 716 901.727 712.909C900.182 709.818 897.97 707.379 895.091 705.591C892.242 703.803 888.879 702.909 885 702.909C880.727 702.909 877.03 703.97 873.909 706.091C870.818 708.182 868.439 710.909 866.773 714.273C865.106 717.636 864.273 721.242 864.273 725.091V731.273C864.273 736.545 865.182 741.015 867 744.682C868.848 748.318 871.409 751.091 874.682 753C877.955 754.879 881.758 755.818 886.091 755.818C888.909 755.818 891.455 755.424 893.727 754.636C896.03 753.818 898.015 752.606 899.682 751C901.348 749.364 902.636 747.333 903.545 744.909L913.909 747.818C912.818 751.333 910.985 754.424 908.409 757.091C905.833 759.727 902.652 761.788 898.864 763.273C895.076 764.727 890.818 765.455 886.091 765.455ZM925.136 764V754H927.682C929.773 754 931.515 753.591 932.909 752.773C934.303 751.924 935.424 750.455 936.273 748.364C937.152 746.242 937.818 743.303 938.273 739.545C938.758 735.758 939.106 730.939 939.318 725.091L940.591 694.182H987.136V764H976.409V704.182H950.773L949.682 729.091C949.439 734.818 948.924 739.864 948.136 744.227C947.379 748.561 946.212 752.197 944.636 755.136C943.091 758.076 941.03 760.288 938.455 761.773C935.879 763.258 932.652 764 928.773 764H925.136ZM1017.55 748.182L1051.18 694.182H1063.55V764H1052.82V710L1019.36 764H1006.82V694.182H1017.55V748.182ZM1115.19 704.182V694.182H1171.92V704.182H1149.01V764H1138.28V704.182H1115.19ZM1213.22 765.455C1206.49 765.455 1200.69 763.97 1195.81 761C1190.96 758 1187.22 753.818 1184.58 748.455C1181.97 743.061 1180.67 736.788 1180.67 729.636C1180.67 722.485 1181.97 716.182 1184.58 710.727C1187.22 705.242 1190.88 700.97 1195.58 697.909C1200.31 694.818 1205.82 693.273 1212.12 693.273C1215.76 693.273 1219.35 693.879 1222.9 695.091C1226.44 696.303 1229.67 698.273 1232.58 701C1235.49 703.697 1237.81 707.273 1239.53 711.727C1241.26 716.182 1242.12 721.667 1242.12 728.182V732.727H1188.31V723.455H1231.22C1231.22 719.515 1230.43 716 1228.85 712.909C1227.31 709.818 1225.09 707.379 1222.22 705.591C1219.37 703.803 1216 702.909 1212.12 702.909C1207.85 702.909 1204.16 703.97 1201.03 706.091C1197.94 708.182 1195.56 710.909 1193.9 714.273C1192.23 717.636 1191.4 721.242 1191.4 725.091V731.273C1191.4 736.545 1192.31 741.015 1194.12 744.682C1195.97 748.318 1198.53 751.091 1201.81 753C1205.08 754.879 1208.88 755.818 1213.22 755.818C1216.03 755.818 1218.58 755.424 1220.85 754.636C1223.16 753.818 1225.14 752.606 1226.81 751C1228.47 749.364 1229.76 747.333 1230.67 744.909L1241.03 747.818C1239.94 751.333 1238.11 754.424 1235.53 757.091C1232.96 759.727 1229.78 761.788 1225.99 763.273C1222.2 764.727 1217.94 765.455 1213.22 765.455ZM1258.44 764V694.182H1269.17V724.545H1276.26L1301.35 694.182H1315.17L1286.99 727.818L1315.53 764H1301.72L1278.81 734.545H1269.17V764H1258.44ZM1352.68 765.455C1346.14 765.455 1340.5 763.909 1335.77 760.818C1331.05 757.727 1327.41 753.47 1324.86 748.045C1322.32 742.621 1321.05 736.424 1321.05 729.455C1321.05 722.364 1322.35 716.106 1324.95 710.682C1327.59 705.227 1331.26 700.97 1335.95 697.909C1340.68 694.818 1346.2 693.273 1352.5 693.273C1357.41 693.273 1361.83 694.182 1365.77 696C1369.71 697.818 1372.94 700.364 1375.45 703.636C1377.97 706.909 1379.53 710.727 1380.14 715.091H1369.41C1368.59 711.909 1366.77 709.091 1363.95 706.636C1361.17 704.152 1357.41 702.909 1352.68 702.909C1348.5 702.909 1344.83 704 1341.68 706.182C1338.56 708.333 1336.12 711.379 1334.36 715.318C1332.64 719.227 1331.77 723.818 1331.77 729.091C1331.77 734.485 1332.62 739.182 1334.32 743.182C1336.05 747.182 1338.47 750.288 1341.59 752.5C1344.74 754.712 1348.44 755.818 1352.68 755.818C1355.47 755.818 1358 755.333 1360.27 754.364C1362.55 753.394 1364.47 752 1366.05 750.182C1367.62 748.364 1368.74 746.182 1369.41 743.636H1380.14C1379.53 747.758 1378.03 751.47 1375.64 754.773C1373.27 758.045 1370.14 760.652 1366.23 762.591C1362.35 764.5 1357.83 765.455 1352.68 765.455ZM1390.32 704.182V694.182H1447.05V704.182H1424.14V764H1413.41V704.182H1390.32ZM1509.42 748.182L1543.06 694.182H1555.42V764H1544.69V710L1511.24 764H1498.69V694.182H1509.42V748.182ZM1657.8 724.182V734.182H1619.25V724.182H1657.8ZM1621.8 694.182V764H1611.07V694.182H1621.8ZM1665.98 694.182V764H1655.25V694.182H1665.98ZM1706.11 765.636C1701.69 765.636 1697.67 764.803 1694.07 763.136C1690.46 761.439 1687.6 759 1685.48 755.818C1683.36 752.606 1682.3 748.727 1682.3 744.182C1682.3 740.182 1683.08 736.939 1684.66 734.455C1686.23 731.939 1688.34 729.97 1690.98 728.545C1693.61 727.121 1696.52 726.061 1699.7 725.364C1702.92 724.636 1706.14 724.061 1709.39 723.636C1713.63 723.091 1717.07 722.682 1719.7 722.409C1722.37 722.106 1724.31 721.606 1725.52 720.909C1726.77 720.212 1727.39 719 1727.39 717.273V716.909C1727.39 712.424 1726.16 708.939 1723.7 706.455C1721.28 703.97 1717.6 702.727 1712.66 702.727C1707.54 702.727 1703.52 703.848 1700.61 706.091C1697.7 708.333 1695.66 710.727 1694.48 713.273L1684.3 709.636C1686.11 705.394 1688.54 702.091 1691.57 699.727C1694.63 697.333 1697.96 695.667 1701.57 694.727C1705.2 693.758 1708.78 693.273 1712.3 693.273C1714.54 693.273 1717.11 693.545 1720.02 694.091C1722.96 694.606 1725.8 695.682 1728.52 697.318C1731.28 698.955 1733.57 701.424 1735.39 704.727C1737.2 708.03 1738.11 712.455 1738.11 718V764H1727.39V754.545H1726.84C1726.11 756.061 1724.9 757.682 1723.2 759.409C1721.51 761.136 1719.25 762.606 1716.43 763.818C1713.61 765.03 1710.17 765.636 1706.11 765.636ZM1707.75 756C1711.99 756 1715.57 755.167 1718.48 753.5C1721.42 751.833 1723.63 749.682 1725.11 747.045C1726.63 744.409 1727.39 741.636 1727.39 738.727V728.909C1726.93 729.455 1725.93 729.955 1724.39 730.409C1722.87 730.833 1721.11 731.212 1719.11 731.545C1717.14 731.848 1715.22 732.121 1713.34 732.364C1711.49 732.576 1709.99 732.758 1708.84 732.909C1706.05 733.273 1703.45 733.864 1701.02 734.682C1698.63 735.47 1696.69 736.667 1695.2 738.273C1693.75 739.848 1693.02 742 1693.02 744.727C1693.02 748.455 1694.4 751.273 1697.16 753.182C1699.95 755.061 1703.48 756 1707.75 756ZM1753.33 764L1781.69 728.545L1753.69 694.182H1766.42L1789.69 724H1795.51V694.182H1806.24V724H1811.88L1835.15 694.182H1847.88L1820.06 728.545L1848.24 764H1835.33L1811.69 734H1806.24V764H1795.51V734H1790.06L1766.24 764H1753.33ZM1901.75 749.455L1926.11 694.182H1936.3L1906.11 764H1897.39L1867.75 694.182H1877.75L1901.75 749.455ZM1874.3 694.182V764H1863.57V694.182H1874.3ZM1929.2 764V694.182H1939.93V764H1929.2ZM1970.3 748.182L2003.93 694.182H2016.3V764H2005.57V710L1972.11 764H1959.57V694.182H1970.3V748.182Z" fill="#175F87"/>
<path d="M455.636 1148V1139.82L486.364 1106.18C489.97 1102.24 492.939 1098.82 495.273 1095.91C497.606 1092.97 499.333 1090.21 500.455 1087.64C501.606 1085.03 502.182 1082.3 502.182 1079.45C502.182 1076.18 501.394 1073.35 499.818 1070.95C498.273 1068.56 496.152 1066.71 493.455 1065.41C490.758 1064.11 487.727 1063.45 484.364 1063.45C480.788 1063.45 477.667 1064.2 475 1065.68C472.364 1067.14 470.318 1069.18 468.864 1071.82C467.439 1074.45 466.727 1077.55 466.727 1081.09H456C456 1075.64 457.258 1070.85 459.773 1066.73C462.288 1062.61 465.712 1059.39 470.045 1057.09C474.409 1054.79 479.303 1053.64 484.727 1053.64C490.182 1053.64 495.015 1054.79 499.227 1057.09C503.439 1059.39 506.742 1062.5 509.136 1066.41C511.53 1070.32 512.727 1074.67 512.727 1079.45C512.727 1082.88 512.106 1086.23 510.864 1089.5C509.652 1092.74 507.53 1096.36 504.5 1100.36C501.5 1104.33 497.333 1109.18 492 1114.91L471.091 1137.27V1138H514.364V1148H455.636ZM556.227 1101.45C556.227 1112.91 554.727 1123.45 551.727 1133.09C548.758 1142.7 544.5 1151.55 538.955 1159.64H529.5C531.682 1156.64 533.712 1152.94 535.591 1148.55C537.5 1144.18 539.167 1139.39 540.591 1134.18C542.015 1128.94 543.121 1123.53 543.909 1117.95C544.727 1112.35 545.136 1106.85 545.136 1101.45C545.136 1094.24 544.439 1086.92 543.045 1079.5C541.652 1072.08 539.773 1065.18 537.409 1058.82C535.045 1052.45 532.409 1047.27 529.5 1043.27H538.955C544.5 1051.36 548.758 1060.23 551.727 1069.86C554.727 1079.47 556.227 1090 556.227 1101.45ZM686.784 1054.91V1148H675.511V1064.91H628.602V1148H617.33V1054.91H686.784ZM736.432 1149.45C730.129 1149.45 724.598 1147.95 719.841 1144.95C715.114 1141.95 711.417 1137.76 708.75 1132.36C706.114 1126.97 704.795 1120.67 704.795 1113.45C704.795 1106.18 706.114 1099.83 708.75 1094.41C711.417 1088.98 715.114 1084.77 719.841 1081.77C724.598 1078.77 730.129 1077.27 736.432 1077.27C742.735 1077.27 748.25 1078.77 752.977 1081.77C757.735 1084.77 761.432 1088.98 764.068 1094.41C766.735 1099.83 768.068 1106.18 768.068 1113.45C768.068 1120.67 766.735 1126.97 764.068 1132.36C761.432 1137.76 757.735 1141.95 752.977 1144.95C748.25 1147.95 742.735 1149.45 736.432 1149.45ZM736.432 1139.82C741.22 1139.82 745.159 1138.59 748.25 1136.14C751.341 1133.68 753.629 1130.45 755.114 1126.45C756.598 1122.45 757.341 1118.12 757.341 1113.45C757.341 1108.79 756.598 1104.44 755.114 1100.41C753.629 1096.38 751.341 1093.12 748.25 1090.64C745.159 1088.15 741.22 1086.91 736.432 1086.91C731.644 1086.91 727.705 1088.15 724.614 1090.64C721.523 1093.12 719.235 1096.38 717.75 1100.41C716.265 1104.44 715.523 1108.79 715.523 1113.45C715.523 1118.12 716.265 1122.45 717.75 1126.45C719.235 1130.45 721.523 1133.68 724.614 1136.14C727.705 1138.59 731.644 1139.82 736.432 1139.82ZM812.807 1149.45C806.261 1149.45 800.625 1147.91 795.898 1144.82C791.17 1141.73 787.534 1137.47 784.989 1132.05C782.443 1126.62 781.17 1120.42 781.17 1113.45C781.17 1106.36 782.473 1100.11 785.08 1094.68C787.716 1089.23 791.383 1084.97 796.08 1081.91C800.807 1078.82 806.322 1077.27 812.625 1077.27C817.534 1077.27 821.958 1078.18 825.898 1080C829.837 1081.82 833.064 1084.36 835.58 1087.64C838.095 1090.91 839.655 1094.73 840.261 1099.09H829.534C828.716 1095.91 826.898 1093.09 824.08 1090.64C821.292 1088.15 817.534 1086.91 812.807 1086.91C808.625 1086.91 804.958 1088 801.807 1090.18C798.686 1092.33 796.246 1095.38 794.489 1099.32C792.761 1103.23 791.898 1107.82 791.898 1113.09C791.898 1118.48 792.746 1123.18 794.443 1127.18C796.17 1131.18 798.595 1134.29 801.716 1136.5C804.867 1138.71 808.564 1139.82 812.807 1139.82C815.595 1139.82 818.125 1139.33 820.398 1138.36C822.67 1137.39 824.595 1136 826.17 1134.18C827.746 1132.36 828.867 1130.18 829.534 1127.64H840.261C839.655 1131.76 838.155 1135.47 835.761 1138.77C833.398 1142.05 830.261 1144.65 826.352 1146.59C822.473 1148.5 817.958 1149.45 812.807 1149.45ZM850.443 1088.18V1078.18H907.17V1088.18H884.261V1148H873.534V1088.18H850.443ZM939.739 1149.64C935.314 1149.64 931.299 1148.8 927.693 1147.14C924.087 1145.44 921.223 1143 919.102 1139.82C916.981 1136.61 915.92 1132.73 915.92 1128.18C915.92 1124.18 916.708 1120.94 918.284 1118.45C919.86 1115.94 921.966 1113.97 924.602 1112.55C927.239 1111.12 930.148 1110.06 933.33 1109.36C936.542 1108.64 939.769 1108.06 943.011 1107.64C947.254 1107.09 950.693 1106.68 953.33 1106.41C955.996 1106.11 957.936 1105.61 959.148 1104.91C960.39 1104.21 961.011 1103 961.011 1101.27V1100.91C961.011 1096.42 959.784 1092.94 957.33 1090.45C954.905 1087.97 951.223 1086.73 946.284 1086.73C941.163 1086.73 937.148 1087.85 934.239 1090.09C931.33 1092.33 929.284 1094.73 928.102 1097.27L917.92 1093.64C919.739 1089.39 922.163 1086.09 925.193 1083.73C928.254 1081.33 931.587 1079.67 935.193 1078.73C938.83 1077.76 942.405 1077.27 945.92 1077.27C948.163 1077.27 950.739 1077.55 953.648 1078.09C956.587 1078.61 959.42 1079.68 962.148 1081.32C964.905 1082.95 967.193 1085.42 969.011 1088.73C970.83 1092.03 971.739 1096.45 971.739 1102V1148H961.011V1138.55H960.466C959.739 1140.06 958.527 1141.68 956.83 1143.41C955.133 1145.14 952.875 1146.61 950.057 1147.82C947.239 1149.03 943.799 1149.64 939.739 1149.64ZM941.375 1140C945.617 1140 949.193 1139.17 952.102 1137.5C955.042 1135.83 957.254 1133.68 958.739 1131.05C960.254 1128.41 961.011 1125.64 961.011 1122.73V1112.91C960.557 1113.45 959.557 1113.95 958.011 1114.41C956.496 1114.83 954.739 1115.21 952.739 1115.55C950.769 1115.85 948.845 1116.12 946.966 1116.36C945.117 1116.58 943.617 1116.76 942.466 1116.91C939.678 1117.27 937.072 1117.86 934.648 1118.68C932.254 1119.47 930.314 1120.67 928.83 1122.27C927.375 1123.85 926.648 1126 926.648 1128.73C926.648 1132.45 928.027 1135.27 930.784 1137.18C933.572 1139.06 937.102 1140 941.375 1140ZM991.318 1148V1078.18H1019.86C1027.38 1078.18 1033.35 1079.88 1037.77 1083.27C1042.2 1086.67 1044.41 1091.15 1044.41 1096.73C1044.41 1100.97 1043.15 1104.26 1040.64 1106.59C1038.12 1108.89 1034.89 1110.45 1030.95 1111.27C1033.53 1111.64 1036.03 1112.55 1038.45 1114C1040.91 1115.45 1042.94 1117.45 1044.55 1120C1046.15 1122.52 1046.95 1125.61 1046.95 1129.27C1046.95 1132.85 1046.05 1136.05 1044.23 1138.86C1042.41 1141.68 1039.8 1143.91 1036.41 1145.55C1033.02 1147.18 1028.95 1148 1024.23 1148H991.318ZM1001.5 1138.18H1024.23C1027.92 1138.18 1030.82 1137.3 1032.91 1135.55C1035 1133.79 1036.05 1131.39 1036.05 1128.36C1036.05 1124.76 1035 1121.92 1032.91 1119.86C1030.82 1117.77 1027.92 1116.73 1024.23 1116.73H1001.5V1138.18ZM1001.5 1107.45H1019.86C1022.74 1107.45 1025.21 1107.06 1027.27 1106.27C1029.33 1105.45 1030.91 1104.3 1032 1102.82C1033.12 1101.3 1033.68 1099.52 1033.68 1097.45C1033.68 1094.52 1032.45 1092.21 1030 1090.55C1027.55 1088.85 1024.17 1088 1019.86 1088H1001.5V1107.45ZM1072.47 1103.45H1092.47C1100.65 1103.45 1106.91 1105.53 1111.24 1109.68C1115.57 1113.83 1117.74 1119.09 1117.74 1125.45C1117.74 1129.64 1116.77 1133.44 1114.83 1136.86C1112.89 1140.26 1110.04 1142.97 1106.28 1145C1102.53 1147 1097.92 1148 1092.47 1148H1063.19V1078.18H1073.92V1138H1092.47C1096.71 1138 1100.19 1136.88 1102.92 1134.64C1105.65 1132.39 1107.01 1129.52 1107.01 1126C1107.01 1122.3 1105.65 1119.29 1102.92 1116.95C1100.19 1114.62 1096.71 1113.45 1092.47 1113.45H1072.47V1103.45ZM1170.07 1148V1078.18H1180.8V1108.55H1187.89L1212.98 1078.18H1226.8L1198.61 1111.82L1227.16 1148H1213.34L1190.43 1118.55H1180.8V1148H1170.07ZM1245.73 1174.18C1243.91 1174.18 1242.29 1174.03 1240.86 1173.73C1239.44 1173.45 1238.45 1173.18 1237.91 1172.91L1240.64 1163.45C1243.24 1164.12 1245.55 1164.36 1247.55 1164.18C1249.55 1164 1251.32 1163.11 1252.86 1161.5C1254.44 1159.92 1255.88 1157.36 1257.18 1153.82L1259.18 1148.36L1233.36 1078.18H1245L1264.27 1133.82H1265L1284.27 1078.18H1295.91L1266.27 1158.18C1264.94 1161.79 1263.29 1164.77 1261.32 1167.14C1259.35 1169.53 1257.06 1171.3 1254.45 1172.45C1251.88 1173.61 1248.97 1174.18 1245.73 1174.18ZM1310.07 1174.18V1078.18H1320.43V1089.27H1321.7C1322.49 1088.06 1323.58 1086.52 1324.98 1084.64C1326.4 1082.73 1328.43 1081.03 1331.07 1079.55C1333.73 1078.03 1337.34 1077.27 1341.89 1077.27C1347.77 1077.27 1352.95 1078.74 1357.43 1081.68C1361.92 1084.62 1365.42 1088.79 1367.93 1094.18C1370.45 1099.58 1371.7 1105.94 1371.7 1113.27C1371.7 1120.67 1370.45 1127.08 1367.93 1132.5C1365.42 1137.89 1361.93 1142.08 1357.48 1145.05C1353.02 1147.98 1347.89 1149.45 1342.07 1149.45C1337.58 1149.45 1333.99 1148.71 1331.3 1147.23C1328.6 1145.71 1326.52 1144 1325.07 1142.09C1323.61 1140.15 1322.49 1138.55 1321.7 1137.27H1320.8V1174.18H1310.07ZM1320.61 1113.09C1320.61 1118.36 1321.39 1123.02 1322.93 1127.05C1324.48 1131.05 1326.73 1134.18 1329.7 1136.45C1332.67 1138.7 1336.31 1139.82 1340.61 1139.82C1345.1 1139.82 1348.84 1138.64 1351.84 1136.27C1354.87 1133.88 1357.14 1130.67 1358.66 1126.64C1360.2 1122.58 1360.98 1118.06 1360.98 1113.09C1360.98 1108.18 1360.22 1103.76 1358.7 1099.82C1357.22 1095.85 1354.96 1092.71 1351.93 1090.41C1348.93 1088.08 1345.16 1086.91 1340.61 1086.91C1336.25 1086.91 1332.58 1088.02 1329.61 1090.23C1326.64 1092.41 1324.4 1095.47 1322.89 1099.41C1321.37 1103.32 1320.61 1107.88 1320.61 1113.09ZM1416.43 1149.45C1409.89 1149.45 1404.25 1147.91 1399.52 1144.82C1394.8 1141.73 1391.16 1137.47 1388.61 1132.05C1386.07 1126.62 1384.8 1120.42 1384.8 1113.45C1384.8 1106.36 1386.1 1100.11 1388.7 1094.68C1391.34 1089.23 1395.01 1084.97 1399.7 1081.91C1404.43 1078.82 1409.95 1077.27 1416.25 1077.27C1421.16 1077.27 1425.58 1078.18 1429.52 1080C1433.46 1081.82 1436.69 1084.36 1439.2 1087.64C1441.72 1090.91 1443.28 1094.73 1443.89 1099.09H1433.16C1432.34 1095.91 1430.52 1093.09 1427.7 1090.64C1424.92 1088.15 1421.16 1086.91 1416.43 1086.91C1412.25 1086.91 1408.58 1088 1405.43 1090.18C1402.31 1092.33 1399.87 1095.38 1398.11 1099.32C1396.39 1103.23 1395.52 1107.82 1395.52 1113.09C1395.52 1118.48 1396.37 1123.18 1398.07 1127.18C1399.8 1131.18 1402.22 1134.29 1405.34 1136.5C1408.49 1138.71 1412.19 1139.82 1416.43 1139.82C1419.22 1139.82 1421.75 1139.33 1424.02 1138.36C1426.3 1137.39 1428.22 1136 1429.8 1134.18C1431.37 1132.36 1432.49 1130.18 1433.16 1127.64H1443.89C1443.28 1131.76 1441.78 1135.47 1439.39 1138.77C1437.02 1142.05 1433.89 1144.65 1429.98 1146.59C1426.1 1148.5 1421.58 1149.45 1416.43 1149.45ZM1487.93 1149.45C1481.63 1149.45 1476.1 1147.95 1471.34 1144.95C1466.61 1141.95 1462.92 1137.76 1460.25 1132.36C1457.61 1126.97 1456.3 1120.67 1456.3 1113.45C1456.3 1106.18 1457.61 1099.83 1460.25 1094.41C1462.92 1088.98 1466.61 1084.77 1471.34 1081.77C1476.1 1078.77 1481.63 1077.27 1487.93 1077.27C1494.23 1077.27 1499.75 1078.77 1504.48 1081.77C1509.23 1084.77 1512.93 1088.98 1515.57 1094.41C1518.23 1099.83 1519.57 1106.18 1519.57 1113.45C1519.57 1120.67 1518.23 1126.97 1515.57 1132.36C1512.93 1137.76 1509.23 1141.95 1504.48 1144.95C1499.75 1147.95 1494.23 1149.45 1487.93 1149.45ZM1487.93 1139.82C1492.72 1139.82 1496.66 1138.59 1499.75 1136.14C1502.84 1133.68 1505.13 1130.45 1506.61 1126.45C1508.1 1122.45 1508.84 1118.12 1508.84 1113.45C1508.84 1108.79 1508.1 1104.44 1506.61 1100.41C1505.13 1096.38 1502.84 1093.12 1499.75 1090.64C1496.66 1088.15 1492.72 1086.91 1487.93 1086.91C1483.14 1086.91 1479.2 1088.15 1476.11 1090.64C1473.02 1093.12 1470.73 1096.38 1469.25 1100.41C1467.77 1104.44 1467.02 1108.79 1467.02 1113.45C1467.02 1118.12 1467.77 1122.45 1469.25 1126.45C1470.73 1130.45 1473.02 1133.68 1476.11 1136.14C1479.2 1138.59 1483.14 1139.82 1487.93 1139.82ZM1535.94 1174.18V1078.18H1546.31V1089.27H1547.58C1548.37 1088.06 1549.46 1086.52 1550.85 1084.64C1552.28 1082.73 1554.31 1081.03 1556.94 1079.55C1559.61 1078.03 1563.22 1077.27 1567.76 1077.27C1573.64 1077.27 1578.82 1078.74 1583.31 1081.68C1587.79 1084.62 1591.29 1088.79 1593.81 1094.18C1596.32 1099.58 1597.58 1105.94 1597.58 1113.27C1597.58 1120.67 1596.32 1127.08 1593.81 1132.5C1591.29 1137.89 1587.81 1142.08 1583.35 1145.05C1578.9 1147.98 1573.76 1149.45 1567.94 1149.45C1563.46 1149.45 1559.87 1148.71 1557.17 1147.23C1554.47 1145.71 1552.4 1144 1550.94 1142.09C1549.49 1140.15 1548.37 1138.55 1547.58 1137.27H1546.67V1174.18H1535.94ZM1546.49 1113.09C1546.49 1118.36 1547.26 1123.02 1548.81 1127.05C1550.35 1131.05 1552.61 1134.18 1555.58 1136.45C1558.55 1138.7 1562.19 1139.82 1566.49 1139.82C1570.97 1139.82 1574.72 1138.64 1577.72 1136.27C1580.75 1133.88 1583.02 1130.67 1584.53 1126.64C1586.08 1122.58 1586.85 1118.06 1586.85 1113.09C1586.85 1108.18 1586.09 1103.76 1584.58 1099.82C1583.09 1095.85 1580.84 1092.71 1577.81 1090.41C1574.81 1088.08 1571.03 1086.91 1566.49 1086.91C1562.13 1086.91 1558.46 1088.02 1555.49 1090.23C1552.52 1092.41 1550.28 1095.47 1548.76 1099.41C1547.25 1103.32 1546.49 1107.88 1546.49 1113.09ZM1649.94 1148V1078.18H1678.49C1686 1078.18 1691.97 1079.88 1696.4 1083.27C1700.82 1086.67 1703.03 1091.15 1703.03 1096.73C1703.03 1100.97 1701.78 1104.26 1699.26 1106.59C1696.75 1108.89 1693.52 1110.45 1689.58 1111.27C1692.16 1111.64 1694.66 1112.55 1697.08 1114C1699.53 1115.45 1701.56 1117.45 1703.17 1120C1704.78 1122.52 1705.58 1125.61 1705.58 1129.27C1705.58 1132.85 1704.67 1136.05 1702.85 1138.86C1701.03 1141.68 1698.43 1143.91 1695.03 1145.55C1691.64 1147.18 1687.58 1148 1682.85 1148H1649.94ZM1660.12 1138.18H1682.85C1686.55 1138.18 1689.44 1137.3 1691.53 1135.55C1693.63 1133.79 1694.67 1131.39 1694.67 1128.36C1694.67 1124.76 1693.63 1121.92 1691.53 1119.86C1689.44 1117.77 1686.55 1116.73 1682.85 1116.73H1660.12V1138.18ZM1660.12 1107.45H1678.49C1681.37 1107.45 1683.84 1107.06 1685.9 1106.27C1687.96 1105.45 1689.53 1104.3 1690.62 1102.82C1691.75 1101.3 1692.31 1099.52 1692.31 1097.45C1692.31 1094.52 1691.08 1092.21 1688.62 1090.55C1686.17 1088.85 1682.79 1088 1678.49 1088H1660.12V1107.45ZM1753.82 1088.18V1078.18H1810.55V1088.18H1787.64V1148H1776.91V1088.18H1753.82ZM1850.93 1149.45C1844.63 1149.45 1839.1 1147.95 1834.34 1144.95C1829.61 1141.95 1825.92 1137.76 1823.25 1132.36C1820.61 1126.97 1819.3 1120.67 1819.3 1113.45C1819.3 1106.18 1820.61 1099.83 1823.25 1094.41C1825.92 1088.98 1829.61 1084.77 1834.34 1081.77C1839.1 1078.77 1844.63 1077.27 1850.93 1077.27C1857.23 1077.27 1862.75 1078.77 1867.48 1081.77C1872.23 1084.77 1875.93 1088.98 1878.57 1094.41C1881.23 1099.83 1882.57 1106.18 1882.57 1113.45C1882.57 1120.67 1881.23 1126.97 1878.57 1132.36C1875.93 1137.76 1872.23 1141.95 1867.48 1144.95C1862.75 1147.95 1857.23 1149.45 1850.93 1149.45ZM1850.93 1139.82C1855.72 1139.82 1859.66 1138.59 1862.75 1136.14C1865.84 1133.68 1868.13 1130.45 1869.61 1126.45C1871.1 1122.45 1871.84 1118.12 1871.84 1113.45C1871.84 1108.79 1871.1 1104.44 1869.61 1100.41C1868.13 1096.38 1865.84 1093.12 1862.75 1090.64C1859.66 1088.15 1855.72 1086.91 1850.93 1086.91C1846.14 1086.91 1842.2 1088.15 1839.11 1090.64C1836.02 1093.12 1833.73 1096.38 1832.25 1100.41C1830.77 1104.44 1830.02 1108.79 1830.02 1113.45C1830.02 1118.12 1830.77 1122.45 1832.25 1126.45C1833.73 1130.45 1836.02 1133.68 1839.11 1136.14C1842.2 1138.59 1846.14 1139.82 1850.93 1139.82ZM1973.12 1133.45L1997.49 1078.18H2007.67L1977.49 1148H1968.76L1939.12 1078.18H1949.12L1973.12 1133.45ZM1945.67 1078.18V1148H1934.94V1078.18H1945.67ZM2000.58 1148V1078.18H2011.31V1148H2000.58ZM2060.22 1149.45C2053.49 1149.45 2047.69 1147.97 2042.81 1145C2037.96 1142 2034.22 1137.82 2031.58 1132.45C2028.97 1127.06 2027.67 1120.79 2027.67 1113.64C2027.67 1106.48 2028.97 1100.18 2031.58 1094.73C2034.22 1089.24 2037.88 1084.97 2042.58 1081.91C2047.31 1078.82 2052.82 1077.27 2059.12 1077.27C2062.76 1077.27 2066.35 1077.88 2069.9 1079.09C2073.44 1080.3 2076.67 1082.27 2079.58 1085C2082.49 1087.7 2084.81 1091.27 2086.53 1095.73C2088.26 1100.18 2089.12 1105.67 2089.12 1112.18V1116.73H2035.31V1107.45H2078.22C2078.22 1103.52 2077.43 1100 2075.85 1096.91C2074.31 1093.82 2072.09 1091.38 2069.22 1089.59C2066.37 1087.8 2063 1086.91 2059.12 1086.91C2054.85 1086.91 2051.16 1087.97 2048.03 1090.09C2044.94 1092.18 2042.56 1094.91 2040.9 1098.27C2039.23 1101.64 2038.4 1105.24 2038.4 1109.09V1115.27C2038.4 1120.55 2039.31 1125.02 2041.12 1128.68C2042.97 1132.32 2045.53 1135.09 2048.81 1137C2052.08 1138.88 2055.88 1139.82 2060.22 1139.82C2063.03 1139.82 2065.58 1139.42 2067.85 1138.64C2070.16 1137.82 2072.14 1136.61 2073.81 1135C2075.47 1133.36 2076.76 1131.33 2077.67 1128.91L2088.03 1131.82C2086.94 1135.33 2085.11 1138.42 2082.53 1141.09C2079.96 1143.73 2076.78 1145.79 2072.99 1147.27C2069.2 1148.73 2064.94 1149.45 2060.22 1149.45ZM2133.81 1149.45C2127.26 1149.45 2121.63 1147.91 2116.9 1144.82C2112.17 1141.73 2108.53 1137.47 2105.99 1132.05C2103.44 1126.62 2102.17 1120.42 2102.17 1113.45C2102.17 1106.36 2103.47 1100.11 2106.08 1094.68C2108.72 1089.23 2112.38 1084.97 2117.08 1081.91C2121.81 1078.82 2127.32 1077.27 2133.62 1077.27C2138.53 1077.27 2142.96 1078.18 2146.9 1080C2150.84 1081.82 2154.06 1084.36 2156.58 1087.64C2159.09 1090.91 2160.66 1094.73 2161.26 1099.09H2150.53C2149.72 1095.91 2147.9 1093.09 2145.08 1090.64C2142.29 1088.15 2138.53 1086.91 2133.81 1086.91C2129.63 1086.91 2125.96 1088 2122.81 1090.18C2119.69 1092.33 2117.25 1095.38 2115.49 1099.32C2113.76 1103.23 2112.9 1107.82 2112.9 1113.09C2112.9 1118.48 2113.75 1123.18 2115.44 1127.18C2117.17 1131.18 2119.59 1134.29 2122.72 1136.5C2125.87 1138.71 2129.56 1139.82 2133.81 1139.82C2136.59 1139.82 2139.12 1139.33 2141.4 1138.36C2143.67 1137.39 2145.59 1136 2147.17 1134.18C2148.75 1132.36 2149.87 1130.18 2150.53 1127.64H2161.26C2160.66 1131.76 2159.16 1135.47 2156.76 1138.77C2154.4 1142.05 2151.26 1144.65 2147.35 1146.59C2143.47 1148.5 2138.96 1149.45 2133.81 1149.45ZM2171.44 1088.18V1078.18H2228.17V1088.18H2205.26V1148H2194.53V1088.18H2171.44ZM2268.56 1149.45C2262.25 1149.45 2256.72 1147.95 2251.97 1144.95C2247.24 1141.95 2243.54 1137.76 2240.88 1132.36C2238.24 1126.97 2236.92 1120.67 2236.92 1113.45C2236.92 1106.18 2238.24 1099.83 2240.88 1094.41C2243.54 1088.98 2247.24 1084.77 2251.97 1081.77C2256.72 1078.77 2262.25 1077.27 2268.56 1077.27C2274.86 1077.27 2280.38 1078.77 2285.1 1081.77C2289.86 1084.77 2293.56 1088.98 2296.19 1094.41C2298.86 1099.83 2300.19 1106.18 2300.19 1113.45C2300.19 1120.67 2298.86 1126.97 2296.19 1132.36C2293.56 1137.76 2289.86 1141.95 2285.1 1144.95C2280.38 1147.95 2274.86 1149.45 2268.56 1149.45ZM2268.56 1139.82C2273.34 1139.82 2277.28 1138.59 2280.38 1136.14C2283.47 1133.68 2285.75 1130.45 2287.24 1126.45C2288.72 1122.45 2289.47 1118.12 2289.47 1113.45C2289.47 1108.79 2288.72 1104.44 2287.24 1100.41C2285.75 1096.38 2283.47 1093.12 2280.38 1090.64C2277.28 1088.15 2273.34 1086.91 2268.56 1086.91C2263.77 1086.91 2259.83 1088.15 2256.74 1090.64C2253.65 1093.12 2251.36 1096.38 2249.88 1100.41C2248.39 1104.44 2247.65 1108.79 2247.65 1113.45C2247.65 1118.12 2248.39 1122.45 2249.88 1126.45C2251.36 1130.45 2253.65 1133.68 2256.74 1136.14C2259.83 1138.59 2263.77 1139.82 2268.56 1139.82ZM2332.57 1135.27L2331.84 1140.18C2331.33 1143.64 2330.54 1147.33 2329.48 1151.27C2328.45 1155.21 2327.37 1158.92 2326.25 1162.41C2325.13 1165.89 2324.2 1168.67 2323.48 1170.73H2315.3C2315.69 1168.79 2316.2 1166.23 2316.84 1163.05C2317.48 1159.86 2318.11 1156.3 2318.75 1152.36C2319.42 1148.45 2319.96 1144.45 2320.39 1140.36L2320.93 1135.27H2332.57ZM2388.44 1148V1078.18H2399.17V1108.55H2406.26L2431.35 1078.18H2445.17L2416.99 1111.82L2445.53 1148H2431.72L2408.81 1118.55H2399.17V1148H2388.44ZM2464.1 1174.18C2462.28 1174.18 2460.66 1174.03 2459.24 1173.73C2457.81 1173.45 2456.83 1173.18 2456.28 1172.91L2459.01 1163.45C2461.62 1164.12 2463.92 1164.36 2465.92 1164.18C2467.92 1164 2469.69 1163.11 2471.24 1161.5C2472.81 1159.92 2474.25 1157.36 2475.56 1153.82L2477.56 1148.36L2451.74 1078.18H2463.38L2482.65 1133.82H2483.38L2502.65 1078.18H2514.28L2484.65 1158.18C2483.31 1161.79 2481.66 1164.77 2479.69 1167.14C2477.72 1169.53 2475.44 1171.3 2472.83 1172.45C2470.25 1173.61 2467.34 1174.18 2464.1 1174.18ZM2515.11 1168V1138H2520.93C2522.36 1136.52 2523.58 1134.91 2524.61 1133.18C2525.64 1131.45 2526.54 1129.41 2527.3 1127.05C2528.08 1124.65 2528.75 1121.74 2529.3 1118.32C2529.84 1114.86 2530.33 1110.7 2530.75 1105.82L2533.11 1078.18H2577.48V1138H2588.2V1168H2577.48V1148H2525.84V1168H2515.11ZM2533.11 1138H2566.75V1088.18H2543.11L2541.3 1105.82C2540.54 1113.12 2539.6 1119.5 2538.48 1124.95C2537.36 1130.41 2535.57 1134.76 2533.11 1138ZM2622.99 1149.64C2618.56 1149.64 2614.55 1148.8 2610.94 1147.14C2607.34 1145.44 2604.47 1143 2602.35 1139.82C2600.23 1136.61 2599.17 1132.73 2599.17 1128.18C2599.17 1124.18 2599.96 1120.94 2601.53 1118.45C2603.11 1115.94 2605.22 1113.97 2607.85 1112.55C2610.49 1111.12 2613.4 1110.06 2616.58 1109.36C2619.79 1108.64 2623.02 1108.06 2626.26 1107.64C2630.5 1107.09 2633.94 1106.68 2636.58 1106.41C2639.25 1106.11 2641.19 1105.61 2642.4 1104.91C2643.64 1104.21 2644.26 1103 2644.26 1101.27V1100.91C2644.26 1096.42 2643.03 1092.94 2640.58 1090.45C2638.16 1087.97 2634.47 1086.73 2629.53 1086.73C2624.41 1086.73 2620.4 1087.85 2617.49 1090.09C2614.58 1092.33 2612.53 1094.73 2611.35 1097.27L2601.17 1093.64C2602.99 1089.39 2605.41 1086.09 2608.44 1083.73C2611.5 1081.33 2614.84 1079.67 2618.44 1078.73C2622.08 1077.76 2625.66 1077.27 2629.17 1077.27C2631.41 1077.27 2633.99 1077.55 2636.9 1078.09C2639.84 1078.61 2642.67 1079.68 2645.4 1081.32C2648.16 1082.95 2650.44 1085.42 2652.26 1088.73C2654.08 1092.03 2654.99 1096.45 2654.99 1102V1148H2644.26V1138.55H2643.72C2642.99 1140.06 2641.78 1141.68 2640.08 1143.41C2638.38 1145.14 2636.13 1146.61 2633.31 1147.82C2630.49 1149.03 2627.05 1149.64 2622.99 1149.64ZM2624.62 1140C2628.87 1140 2632.44 1139.17 2635.35 1137.5C2638.29 1135.83 2640.5 1133.68 2641.99 1131.05C2643.5 1128.41 2644.26 1125.64 2644.26 1122.73V1112.91C2643.81 1113.45 2642.81 1113.95 2641.26 1114.41C2639.75 1114.83 2637.99 1115.21 2635.99 1115.55C2634.02 1115.85 2632.09 1116.12 2630.22 1116.36C2628.37 1116.58 2626.87 1116.76 2625.72 1116.91C2622.93 1117.27 2620.32 1117.86 2617.9 1118.68C2615.5 1119.47 2613.56 1120.67 2612.08 1122.27C2610.63 1123.85 2609.9 1126 2609.9 1128.73C2609.9 1132.45 2611.28 1135.27 2614.03 1137.18C2616.82 1139.06 2620.35 1140 2624.62 1140ZM502.545 1263.18V1273.18H464V1263.18H502.545ZM466.545 1233.18V1303H455.818V1233.18H466.545ZM510.727 1233.18V1303H500V1233.18H510.727ZM534.727 1329.18C532.909 1329.18 531.288 1329.03 529.864 1328.73C528.439 1328.45 527.455 1328.18 526.909 1327.91L529.636 1318.45C532.242 1319.12 534.545 1319.36 536.545 1319.18C538.545 1319 540.318 1318.11 541.864 1316.5C543.439 1314.92 544.879 1312.36 546.182 1308.82L548.182 1303.36L522.364 1233.18H534L553.273 1288.82H554L573.273 1233.18H584.909L555.273 1313.18C553.939 1316.79 552.288 1319.77 550.318 1322.14C548.348 1324.53 546.061 1326.3 543.455 1327.45C540.879 1328.61 537.97 1329.18 534.727 1329.18ZM594.705 1303L623.068 1267.55L595.068 1233.18H607.795L631.068 1263H636.886V1233.18H647.614V1263H653.25L676.523 1233.18H689.25L661.432 1267.55L689.614 1303H676.705L653.068 1273H647.614V1303H636.886V1273H631.432L607.614 1303H594.705ZM751.67 1263.18V1273.18H713.125V1263.18H751.67ZM715.67 1233.18V1303H704.943V1233.18H715.67ZM759.852 1233.18V1303H749.125V1233.18H759.852ZM807.807 1304.45C801.504 1304.45 795.973 1302.95 791.216 1299.95C786.489 1296.95 782.792 1292.76 780.125 1287.36C777.489 1281.97 776.17 1275.67 776.17 1268.45C776.17 1261.18 777.489 1254.83 780.125 1249.41C782.792 1243.98 786.489 1239.77 791.216 1236.77C795.973 1233.77 801.504 1232.27 807.807 1232.27C814.11 1232.27 819.625 1233.77 824.352 1236.77C829.11 1239.77 832.807 1243.98 835.443 1249.41C838.11 1254.83 839.443 1261.18 839.443 1268.45C839.443 1275.67 838.11 1281.97 835.443 1287.36C832.807 1292.76 829.11 1296.95 824.352 1299.95C819.625 1302.95 814.11 1304.45 807.807 1304.45ZM807.807 1294.82C812.595 1294.82 816.534 1293.59 819.625 1291.14C822.716 1288.68 825.004 1285.45 826.489 1281.45C827.973 1277.45 828.716 1273.12 828.716 1268.45C828.716 1263.79 827.973 1259.44 826.489 1255.41C825.004 1251.38 822.716 1248.12 819.625 1245.64C816.534 1243.15 812.595 1241.91 807.807 1241.91C803.019 1241.91 799.08 1243.15 795.989 1245.64C792.898 1248.12 790.61 1251.38 789.125 1255.41C787.64 1259.44 786.898 1263.79 786.898 1268.45C786.898 1273.12 787.64 1277.45 789.125 1281.45C790.61 1285.45 792.898 1288.68 795.989 1291.14C799.08 1293.59 803.019 1294.82 807.807 1294.82ZM891.818 1303V1233.18H920.364C927.879 1233.18 933.848 1234.88 938.273 1238.27C942.697 1241.67 944.909 1246.15 944.909 1251.73C944.909 1255.97 943.652 1259.26 941.136 1261.59C938.621 1263.89 935.394 1265.45 931.455 1266.27C934.03 1266.64 936.53 1267.55 938.955 1269C941.409 1270.45 943.439 1272.45 945.045 1275C946.652 1277.52 947.455 1280.61 947.455 1284.27C947.455 1287.85 946.545 1291.05 944.727 1293.86C942.909 1296.68 940.303 1298.91 936.909 1300.55C933.515 1302.18 929.455 1303 924.727 1303H891.818ZM902 1293.18H924.727C928.424 1293.18 931.318 1292.3 933.409 1290.55C935.5 1288.79 936.545 1286.39 936.545 1283.36C936.545 1279.76 935.5 1276.92 933.409 1274.86C931.318 1272.77 928.424 1271.73 924.727 1271.73H902V1293.18ZM902 1262.45H920.364C923.242 1262.45 925.712 1262.06 927.773 1261.27C929.833 1260.45 931.409 1259.3 932.5 1257.82C933.621 1256.3 934.182 1254.52 934.182 1252.45C934.182 1249.52 932.955 1247.21 930.5 1245.55C928.045 1243.85 924.667 1243 920.364 1243H902V1262.45ZM992.057 1304.45C985.511 1304.45 979.875 1302.91 975.148 1299.82C970.42 1296.73 966.784 1292.47 964.239 1287.05C961.693 1281.62 960.42 1275.42 960.42 1268.45C960.42 1261.36 961.723 1255.11 964.33 1249.68C966.966 1244.23 970.633 1239.97 975.33 1236.91C980.057 1233.82 985.572 1232.27 991.875 1232.27C996.784 1232.27 1001.21 1233.18 1005.15 1235C1009.09 1236.82 1012.31 1239.36 1014.83 1242.64C1017.34 1245.91 1018.91 1249.73 1019.51 1254.09H1008.78C1007.97 1250.91 1006.15 1248.09 1003.33 1245.64C1000.54 1243.15 996.784 1241.91 992.057 1241.91C987.875 1241.91 984.208 1243 981.057 1245.18C977.936 1247.33 975.496 1250.38 973.739 1254.32C972.011 1258.23 971.148 1262.82 971.148 1268.09C971.148 1273.48 971.996 1278.18 973.693 1282.18C975.42 1286.18 977.845 1289.29 980.966 1291.5C984.117 1293.71 987.814 1294.82 992.057 1294.82C994.845 1294.82 997.375 1294.33 999.648 1293.36C1001.92 1292.39 1003.84 1291 1005.42 1289.18C1007 1287.36 1008.12 1285.18 1008.78 1282.64H1019.51C1018.91 1286.76 1017.41 1290.47 1015.01 1293.77C1012.65 1297.05 1009.51 1299.65 1005.6 1301.59C1001.72 1303.5 997.208 1304.45 992.057 1304.45ZM1029.69 1243.18V1233.18H1086.42V1243.18H1063.51V1303H1052.78V1243.18H1029.69ZM1118.99 1304.64C1114.56 1304.64 1110.55 1303.8 1106.94 1302.14C1103.34 1300.44 1100.47 1298 1098.35 1294.82C1096.23 1291.61 1095.17 1287.73 1095.17 1283.18C1095.17 1279.18 1095.96 1275.94 1097.53 1273.45C1099.11 1270.94 1101.22 1268.97 1103.85 1267.55C1106.49 1266.12 1109.4 1265.06 1112.58 1264.36C1115.79 1263.64 1119.02 1263.06 1122.26 1262.64C1126.5 1262.09 1129.94 1261.68 1132.58 1261.41C1135.25 1261.11 1137.19 1260.61 1138.4 1259.91C1139.64 1259.21 1140.26 1258 1140.26 1256.27V1255.91C1140.26 1251.42 1139.03 1247.94 1136.58 1245.45C1134.16 1242.97 1130.47 1241.73 1125.53 1241.73C1120.41 1241.73 1116.4 1242.85 1113.49 1245.09C1110.58 1247.33 1108.53 1249.73 1107.35 1252.27L1097.17 1248.64C1098.99 1244.39 1101.41 1241.09 1104.44 1238.73C1107.5 1236.33 1110.84 1234.67 1114.44 1233.73C1118.08 1232.76 1121.66 1232.27 1125.17 1232.27C1127.41 1232.27 1129.99 1232.55 1132.9 1233.09C1135.84 1233.61 1138.67 1234.68 1141.4 1236.32C1144.16 1237.95 1146.44 1240.42 1148.26 1243.73C1150.08 1247.03 1150.99 1251.45 1150.99 1257V1303H1140.26V1293.55H1139.72C1138.99 1295.06 1137.78 1296.68 1136.08 1298.41C1134.38 1300.14 1132.13 1301.61 1129.31 1302.82C1126.49 1304.03 1123.05 1304.64 1118.99 1304.64ZM1120.62 1295C1124.87 1295 1128.44 1294.17 1131.35 1292.5C1134.29 1290.83 1136.5 1288.68 1137.99 1286.05C1139.5 1283.41 1140.26 1280.64 1140.26 1277.73V1267.91C1139.81 1268.45 1138.81 1268.95 1137.26 1269.41C1135.75 1269.83 1133.99 1270.21 1131.99 1270.55C1130.02 1270.85 1128.09 1271.12 1126.22 1271.36C1124.37 1271.58 1122.87 1271.76 1121.72 1271.91C1118.93 1272.27 1116.32 1272.86 1113.9 1273.68C1111.5 1274.47 1109.56 1275.67 1108.08 1277.27C1106.63 1278.85 1105.9 1281 1105.9 1283.73C1105.9 1287.45 1107.28 1290.27 1110.03 1292.18C1112.82 1294.06 1116.35 1295 1120.62 1295ZM1170.57 1303V1233.18H1199.11C1206.63 1233.18 1212.6 1234.88 1217.02 1238.27C1221.45 1241.67 1223.66 1246.15 1223.66 1251.73C1223.66 1255.97 1222.4 1259.26 1219.89 1261.59C1217.37 1263.89 1214.14 1265.45 1210.2 1266.27C1212.78 1266.64 1215.28 1267.55 1217.7 1269C1220.16 1270.45 1222.19 1272.45 1223.8 1275C1225.4 1277.52 1226.2 1280.61 1226.2 1284.27C1226.2 1287.85 1225.3 1291.05 1223.48 1293.86C1221.66 1296.68 1219.05 1298.91 1215.66 1300.55C1212.27 1302.18 1208.2 1303 1203.48 1303H1170.57ZM1180.75 1293.18H1203.48C1207.17 1293.18 1210.07 1292.3 1212.16 1290.55C1214.25 1288.79 1215.3 1286.39 1215.3 1283.36C1215.3 1279.76 1214.25 1276.92 1212.16 1274.86C1210.07 1272.77 1207.17 1271.73 1203.48 1271.73H1180.75V1293.18ZM1180.75 1262.45H1199.11C1201.99 1262.45 1204.46 1262.06 1206.52 1261.27C1208.58 1260.45 1210.16 1259.3 1211.25 1257.82C1212.37 1256.3 1212.93 1254.52 1212.93 1252.45C1212.93 1249.52 1211.7 1247.21 1209.25 1245.55C1206.8 1243.85 1203.42 1243 1199.11 1243H1180.75V1262.45ZM1253.17 1287.18L1286.81 1233.18H1299.17V1303H1288.44V1249L1254.99 1303H1242.44V1233.18H1253.17V1287.18ZM1309.32 1243.18V1233.18H1366.05V1243.18H1343.14V1303H1332.41V1243.18H1309.32ZM1390.97 1258.45H1410.97C1419.15 1258.45 1425.41 1260.53 1429.74 1264.68C1434.07 1268.83 1436.24 1274.09 1436.24 1280.45C1436.24 1284.64 1435.27 1288.44 1433.33 1291.86C1431.39 1295.26 1428.54 1297.97 1424.78 1300C1421.03 1302 1416.42 1303 1410.97 1303H1381.69V1233.18H1392.42V1293H1410.97C1415.21 1293 1418.69 1291.88 1421.42 1289.64C1424.15 1287.39 1425.51 1284.52 1425.51 1281C1425.51 1277.3 1424.15 1274.29 1421.42 1271.95C1418.69 1269.62 1415.21 1268.45 1410.97 1268.45H1390.97V1258.45ZM1484.57 1243.18V1233.18H1541.3V1243.18H1518.39V1303H1507.66V1243.18H1484.57ZM1582.59 1304.45C1575.86 1304.45 1570.06 1302.97 1565.18 1300C1560.33 1297 1556.59 1292.82 1553.95 1287.45C1551.35 1282.06 1550.05 1275.79 1550.05 1268.64C1550.05 1261.48 1551.35 1255.18 1553.95 1249.73C1556.59 1244.24 1560.26 1239.97 1564.95 1236.91C1569.68 1233.82 1575.2 1232.27 1581.5 1232.27C1585.14 1232.27 1588.73 1232.88 1592.27 1234.09C1595.82 1235.3 1599.05 1237.27 1601.95 1240C1604.86 1242.7 1607.18 1246.27 1608.91 1250.73C1610.64 1255.18 1611.5 1260.67 1611.5 1267.18V1271.73H1557.68V1262.45H1600.59C1600.59 1258.52 1599.8 1255 1598.23 1251.91C1596.68 1248.82 1594.47 1246.38 1591.59 1244.59C1588.74 1242.8 1585.38 1241.91 1581.5 1241.91C1577.23 1241.91 1573.53 1242.97 1570.41 1245.09C1567.32 1247.18 1564.94 1249.91 1563.27 1253.27C1561.61 1256.64 1560.77 1260.24 1560.77 1264.09V1270.27C1560.77 1275.55 1561.68 1280.02 1563.5 1283.68C1565.35 1287.32 1567.91 1290.09 1571.18 1292C1574.45 1293.88 1578.26 1294.82 1582.59 1294.82C1585.41 1294.82 1587.95 1294.42 1590.23 1293.64C1592.53 1292.82 1594.52 1291.61 1596.18 1290C1597.85 1288.36 1599.14 1286.33 1600.05 1283.91L1610.41 1286.82C1609.32 1290.33 1607.48 1293.42 1604.91 1296.09C1602.33 1298.73 1599.15 1300.79 1595.36 1302.27C1591.58 1303.73 1587.32 1304.45 1582.59 1304.45ZM1627.82 1303V1233.18H1638.55V1263.55H1645.64L1670.73 1233.18H1684.55L1656.36 1266.82L1684.91 1303H1671.09L1648.18 1273.55H1638.55V1303H1627.82ZM1722.06 1304.45C1715.51 1304.45 1709.88 1302.91 1705.15 1299.82C1700.42 1296.73 1696.78 1292.47 1694.24 1287.05C1691.69 1281.62 1690.42 1275.42 1690.42 1268.45C1690.42 1261.36 1691.72 1255.11 1694.33 1249.68C1696.97 1244.23 1700.63 1239.97 1705.33 1236.91C1710.06 1233.82 1715.57 1232.27 1721.88 1232.27C1726.78 1232.27 1731.21 1233.18 1735.15 1235C1739.09 1236.82 1742.31 1239.36 1744.83 1242.64C1747.34 1245.91 1748.91 1249.73 1749.51 1254.09H1738.78C1737.97 1250.91 1736.15 1248.09 1733.33 1245.64C1730.54 1243.15 1726.78 1241.91 1722.06 1241.91C1717.88 1241.91 1714.21 1243 1711.06 1245.18C1707.94 1247.33 1705.5 1250.38 1703.74 1254.32C1702.01 1258.23 1701.15 1262.82 1701.15 1268.09C1701.15 1273.48 1702 1278.18 1703.69 1282.18C1705.42 1286.18 1707.84 1289.29 1710.97 1291.5C1714.12 1293.71 1717.81 1294.82 1722.06 1294.82C1724.84 1294.82 1727.38 1294.33 1729.65 1293.36C1731.92 1292.39 1733.84 1291 1735.42 1289.18C1737 1287.36 1738.12 1285.18 1738.78 1282.64H1749.51C1748.91 1286.76 1747.41 1290.47 1745.01 1293.77C1742.65 1297.05 1739.51 1299.65 1735.6 1301.59C1731.72 1303.5 1727.21 1304.45 1722.06 1304.45ZM1759.69 1243.18V1233.18H1816.42V1243.18H1793.51V1303H1782.78V1243.18H1759.69ZM1878.8 1287.18L1912.43 1233.18H1924.8V1303H1914.07V1249L1880.61 1303H1868.07V1233.18H1878.8V1287.18ZM2027.17 1263.18V1273.18H1988.62V1263.18H2027.17ZM1991.17 1233.18V1303H1980.44V1233.18H1991.17ZM2035.35 1233.18V1303H2024.62V1233.18H2035.35ZM2075.49 1304.64C2071.06 1304.64 2067.05 1303.8 2063.44 1302.14C2059.84 1300.44 2056.97 1298 2054.85 1294.82C2052.73 1291.61 2051.67 1287.73 2051.67 1283.18C2051.67 1279.18 2052.46 1275.94 2054.03 1273.45C2055.61 1270.94 2057.72 1268.97 2060.35 1267.55C2062.99 1266.12 2065.9 1265.06 2069.08 1264.36C2072.29 1263.64 2075.52 1263.06 2078.76 1262.64C2083 1262.09 2086.44 1261.68 2089.08 1261.41C2091.75 1261.11 2093.69 1260.61 2094.9 1259.91C2096.14 1259.21 2096.76 1258 2096.76 1256.27V1255.91C2096.76 1251.42 2095.53 1247.94 2093.08 1245.45C2090.66 1242.97 2086.97 1241.73 2082.03 1241.73C2076.91 1241.73 2072.9 1242.85 2069.99 1245.09C2067.08 1247.33 2065.03 1249.73 2063.85 1252.27L2053.67 1248.64C2055.49 1244.39 2057.91 1241.09 2060.94 1238.73C2064 1236.33 2067.34 1234.67 2070.94 1233.73C2074.58 1232.76 2078.16 1232.27 2081.67 1232.27C2083.91 1232.27 2086.49 1232.55 2089.4 1233.09C2092.34 1233.61 2095.17 1234.68 2097.9 1236.32C2100.66 1237.95 2102.94 1240.42 2104.76 1243.73C2106.58 1247.03 2107.49 1251.45 2107.49 1257V1303H2096.76V1293.55H2096.22C2095.49 1295.06 2094.28 1296.68 2092.58 1298.41C2090.88 1300.14 2088.63 1301.61 2085.81 1302.82C2082.99 1304.03 2079.55 1304.64 2075.49 1304.64ZM2077.12 1295C2081.37 1295 2084.94 1294.17 2087.85 1292.5C2090.79 1290.83 2093 1288.68 2094.49 1286.05C2096 1283.41 2096.76 1280.64 2096.76 1277.73V1267.91C2096.31 1268.45 2095.31 1268.95 2093.76 1269.41C2092.25 1269.83 2090.49 1270.21 2088.49 1270.55C2086.52 1270.85 2084.59 1271.12 2082.72 1271.36C2080.87 1271.58 2079.37 1271.76 2078.22 1271.91C2075.43 1272.27 2072.82 1272.86 2070.4 1273.68C2068 1274.47 2066.06 1275.67 2064.58 1277.27C2063.13 1278.85 2062.4 1281 2062.4 1283.73C2062.4 1287.45 2063.78 1290.27 2066.53 1292.18C2069.32 1294.06 2072.85 1295 2077.12 1295ZM2122.7 1303L2151.07 1267.55L2123.07 1233.18H2135.8L2159.07 1263H2164.89V1233.18H2175.61V1263H2181.25L2204.52 1233.18H2217.25L2189.43 1267.55L2217.61 1303H2204.7L2181.07 1273H2175.61V1303H2164.89V1273H2159.43L2135.61 1303H2122.7ZM2271.12 1288.45L2295.49 1233.18H2305.67L2275.49 1303H2266.76L2237.12 1233.18H2247.12L2271.12 1288.45ZM2243.67 1233.18V1303H2232.94V1233.18H2243.67ZM2298.58 1303V1233.18H2309.31V1303H2298.58ZM2339.67 1287.18L2373.31 1233.18H2385.67V1303H2374.94V1249L2341.49 1303H2328.94V1233.18H2339.67V1287.18Z" fill="#175F87"/>
<rect x="2831" y="1056" width="443" height="312" rx="54" fill="#626262"/>
<rect x="2215" y="563" width="443" height="312" rx="54" fill="#626262"/>
<rect x="3513" y="1054" width="323" height="312" rx="54" fill="#626262"/>
<rect x="2897" y="561" width="323" height="312" rx="54" fill="#626262"/>
<path d="M2962.18 1192H2950.91C2950.24 1188.76 2949.08 1185.91 2947.41 1183.45C2945.77 1181 2943.77 1178.94 2941.41 1177.27C2939.08 1175.58 2936.48 1174.3 2933.64 1173.45C2930.79 1172.61 2927.82 1172.18 2924.73 1172.18C2919.09 1172.18 2913.98 1173.61 2909.41 1176.45C2904.86 1179.3 2901.24 1183.5 2898.55 1189.05C2895.88 1194.59 2894.55 1201.39 2894.55 1209.45C2894.55 1217.52 2895.88 1224.32 2898.55 1229.86C2901.24 1235.41 2904.86 1239.61 2909.41 1242.45C2913.98 1245.3 2919.09 1246.73 2924.73 1246.73C2927.82 1246.73 2930.79 1246.3 2933.64 1245.45C2936.48 1244.61 2939.08 1243.35 2941.41 1241.68C2943.77 1239.98 2945.77 1237.91 2947.41 1235.45C2949.08 1232.97 2950.24 1230.12 2950.91 1226.91H2962.18C2961.33 1231.67 2959.79 1235.92 2957.55 1239.68C2955.3 1243.44 2952.52 1246.64 2949.18 1249.27C2945.85 1251.88 2942.11 1253.86 2937.95 1255.23C2933.83 1256.59 2929.42 1257.27 2924.73 1257.27C2916.79 1257.27 2909.73 1255.33 2903.55 1251.45C2897.36 1247.58 2892.5 1242.06 2888.95 1234.91C2885.41 1227.76 2883.64 1219.27 2883.64 1209.45C2883.64 1199.64 2885.41 1191.15 2888.95 1184C2892.5 1176.85 2897.36 1171.33 2903.55 1167.45C2909.73 1163.58 2916.79 1161.64 2924.73 1161.64C2929.42 1161.64 2933.83 1162.32 2937.95 1163.68C2942.11 1165.05 2945.85 1167.05 2949.18 1169.68C2952.52 1172.29 2955.3 1175.47 2957.55 1179.23C2959.79 1182.95 2961.33 1187.21 2962.18 1192ZM3009.31 1186.18V1195.27H2973.12V1186.18H3009.31ZM2983.67 1169.45H2994.4V1236C2994.4 1239.03 2994.84 1241.3 2995.72 1242.82C2996.63 1244.3 2997.78 1245.3 2999.17 1245.82C3000.59 1246.3 3002.09 1246.55 3003.67 1246.55C3004.85 1246.55 3005.82 1246.48 3006.58 1246.36C3007.34 1246.21 3007.94 1246.09 3008.4 1246L3010.58 1255.64C3009.85 1255.91 3008.84 1256.18 3007.53 1256.45C3006.23 1256.76 3004.58 1256.91 3002.58 1256.91C2999.55 1256.91 2996.58 1256.26 2993.67 1254.95C2990.79 1253.65 2988.4 1251.67 2986.49 1249C2984.61 1246.33 2983.67 1242.97 2983.67 1238.91V1169.45ZM3025.44 1256V1186.18H3035.81V1196.73H3036.53C3037.81 1193.27 3040.11 1190.47 3043.44 1188.32C3046.78 1186.17 3050.53 1185.09 3054.72 1185.09C3055.5 1185.09 3056.49 1185.11 3057.67 1185.14C3058.85 1185.17 3059.75 1185.21 3060.35 1185.27V1196.18C3059.99 1196.09 3059.16 1195.95 3057.85 1195.77C3056.58 1195.56 3055.23 1195.45 3053.81 1195.45C3050.41 1195.45 3047.38 1196.17 3044.72 1197.59C3042.08 1198.98 3039.99 1200.92 3038.44 1203.41C3036.93 1205.86 3036.17 1208.67 3036.17 1211.82V1256H3025.44ZM3083.8 1162.91V1256H3073.07V1162.91H3083.8Z" fill="white"/>
<path d="M2346.18 699H2334.91C2334.24 695.758 2333.08 692.909 2331.41 690.455C2329.77 688 2327.77 685.939 2325.41 684.273C2323.08 682.576 2320.48 681.303 2317.64 680.455C2314.79 679.606 2311.82 679.182 2308.73 679.182C2303.09 679.182 2297.98 680.606 2293.41 683.455C2288.86 686.303 2285.24 690.5 2282.55 696.045C2279.88 701.591 2278.55 708.394 2278.55 716.455C2278.55 724.515 2279.88 731.318 2282.55 736.864C2285.24 742.409 2288.86 746.606 2293.41 749.455C2297.98 752.303 2303.09 753.727 2308.73 753.727C2311.82 753.727 2314.79 753.303 2317.64 752.455C2320.48 751.606 2323.08 750.348 2325.41 748.682C2327.77 746.985 2329.77 744.909 2331.41 742.455C2333.08 739.97 2334.24 737.121 2334.91 733.909H2346.18C2345.33 738.667 2343.79 742.924 2341.55 746.682C2339.3 750.439 2336.52 753.636 2333.18 756.273C2329.85 758.879 2326.11 760.864 2321.95 762.227C2317.83 763.591 2313.42 764.273 2308.73 764.273C2300.79 764.273 2293.73 762.333 2287.55 758.455C2281.36 754.576 2276.5 749.061 2272.95 741.909C2269.41 734.758 2267.64 726.273 2267.64 716.455C2267.64 706.636 2269.41 698.152 2272.95 691C2276.5 683.848 2281.36 678.333 2287.55 674.455C2293.73 670.576 2300.79 668.636 2308.73 668.636C2313.42 668.636 2317.83 669.318 2321.95 670.682C2326.11 672.045 2329.85 674.045 2333.18 676.682C2336.52 679.288 2339.3 682.47 2341.55 686.227C2343.79 689.955 2345.33 694.212 2346.18 699ZM2393.31 693.182V702.273H2357.12V693.182H2393.31ZM2367.67 676.455H2378.4V743C2378.4 746.03 2378.84 748.303 2379.72 749.818C2380.63 751.303 2381.78 752.303 2383.17 752.818C2384.59 753.303 2386.09 753.545 2387.67 753.545C2388.85 753.545 2389.82 753.485 2390.58 753.364C2391.34 753.212 2391.94 753.091 2392.4 753L2394.58 762.636C2393.85 762.909 2392.84 763.182 2391.53 763.455C2390.23 763.758 2388.58 763.909 2386.58 763.909C2383.55 763.909 2380.58 763.258 2377.67 761.955C2374.79 760.652 2372.4 758.667 2370.49 756C2368.61 753.333 2367.67 749.97 2367.67 745.909V676.455ZM2409.44 763V693.182H2419.81V703.727H2420.53C2421.81 700.273 2424.11 697.47 2427.44 695.318C2430.78 693.167 2434.53 692.091 2438.72 692.091C2439.5 692.091 2440.49 692.106 2441.67 692.136C2442.85 692.167 2443.75 692.212 2444.35 692.273V703.182C2443.99 703.091 2443.16 702.955 2441.85 702.773C2440.58 702.561 2439.23 702.455 2437.81 702.455C2434.41 702.455 2431.38 703.167 2428.72 704.591C2426.08 705.985 2423.99 707.924 2422.44 710.409C2420.93 712.864 2420.17 715.667 2420.17 718.818V763H2409.44ZM2467.8 669.909V763H2457.07V669.909H2467.8Z" fill="white"/>
<path d="M3589.09 1127.91L3616.73 1206.27H3617.82L3645.45 1127.91H3657.27L3623.09 1221H3611.45L3577.27 1127.91H3589.09Z" fill="white"/>
<path d="M3044.18 664H3032.91C3032.24 660.758 3031.08 657.909 3029.41 655.455C3027.77 653 3025.77 650.939 3023.41 649.273C3021.08 647.576 3018.48 646.303 3015.64 645.455C3012.79 644.606 3009.82 644.182 3006.73 644.182C3001.09 644.182 2995.98 645.606 2991.41 648.455C2986.86 651.303 2983.24 655.5 2980.55 661.045C2977.88 666.591 2976.55 673.394 2976.55 681.455C2976.55 689.515 2977.88 696.318 2980.55 701.864C2983.24 707.409 2986.86 711.606 2991.41 714.455C2995.98 717.303 3001.09 718.727 3006.73 718.727C3009.82 718.727 3012.79 718.303 3015.64 717.455C3018.48 716.606 3021.08 715.348 3023.41 713.682C3025.77 711.985 3027.77 709.909 3029.41 707.455C3031.08 704.97 3032.24 702.121 3032.91 698.909H3044.18C3043.33 703.667 3041.79 707.924 3039.55 711.682C3037.3 715.439 3034.52 718.636 3031.18 721.273C3027.85 723.879 3024.11 725.864 3019.95 727.227C3015.83 728.591 3011.42 729.273 3006.73 729.273C2998.79 729.273 2991.73 727.333 2985.55 723.455C2979.36 719.576 2974.5 714.061 2970.95 706.909C2967.41 699.758 2965.64 691.273 2965.64 681.455C2965.64 671.636 2967.41 663.152 2970.95 656C2974.5 648.848 2979.36 643.333 2985.55 639.455C2991.73 635.576 2998.79 633.636 3006.73 633.636C3011.42 633.636 3015.83 634.318 3019.95 635.682C3024.11 637.045 3027.85 639.045 3031.18 641.682C3034.52 644.288 3037.3 647.47 3039.55 651.227C3041.79 654.955 3043.33 659.212 3044.18 664Z" fill="white"/>
<path d="M3723 1283.45L3747.36 1228.18H3757.55L3727.36 1298H3718.64L3689 1228.18H3699L3723 1283.45ZM3695.55 1228.18V1298H3684.82V1228.18H3695.55ZM3750.45 1298V1228.18H3761.18V1298H3750.45Z" fill="white"/>
<path d="M3132.18 807.455C3125.64 807.455 3120 805.909 3115.27 802.818C3110.55 799.727 3106.91 795.47 3104.36 790.045C3101.82 784.621 3100.55 778.424 3100.55 771.455C3100.55 764.364 3101.85 758.106 3104.45 752.682C3107.09 747.227 3110.76 742.97 3115.45 739.909C3120.18 736.818 3125.7 735.273 3132 735.273C3136.91 735.273 3141.33 736.182 3145.27 738C3149.21 739.818 3152.44 742.364 3154.95 745.636C3157.47 748.909 3159.03 752.727 3159.64 757.091H3148.91C3148.09 753.909 3146.27 751.091 3143.45 748.636C3140.67 746.152 3136.91 744.909 3132.18 744.909C3128 744.909 3124.33 746 3121.18 748.182C3118.06 750.333 3115.62 753.379 3113.86 757.318C3112.14 761.227 3111.27 765.818 3111.27 771.091C3111.27 776.485 3112.12 781.182 3113.82 785.182C3115.55 789.182 3117.97 792.288 3121.09 794.5C3124.24 796.712 3127.94 797.818 3132.18 797.818C3134.97 797.818 3137.5 797.333 3139.77 796.364C3142.05 795.394 3143.97 794 3145.55 792.182C3147.12 790.364 3148.24 788.182 3148.91 785.636H3159.64C3159.03 789.758 3157.53 793.47 3155.14 796.773C3152.77 800.045 3149.64 802.652 3145.73 804.591C3141.85 806.5 3137.33 807.455 3132.18 807.455Z" fill="white"/>
<rect x="3400" y="1179" width="18" height="103" fill="black"/>
<rect x="2784" y="686" width="18" height="103" fill="black"/>
<rect x="3460" y="1221" width="19" height="103" transform="rotate(90 3460 1221)" fill="black"/>
<rect x="2844" y="728" width="19" height="103" transform="rotate(90 2844 728)" fill="black"/>
</g>
<defs>
<clipPath id="clip0_301_19">
<rect width="4342" height="1855" fill="white"/>
</clipPath>
</defs>
</svg>
