<svg width="186" height="293" viewBox="0 0 186 293" fill="none" xmlns="http://www.w3.org/2000/svg">
<path fill-rule="evenodd" clip-rule="evenodd" d="M112.316 225.279C119.381 217.148 124.785 225.533 125.88 235.262C126.587 241.542 128 279 128 279H103.571C103.571 277.439 102 258.761 102 257.491C103.298 245.519 104.834 234.551 112.316 225.279Z" fill="#6F568E"/>
<path fill-rule="evenodd" clip-rule="evenodd" d="M138 278.746L127.07 269.32L126.364 278.857L138 278.746Z" fill="#0D1013"/>
<g opacity="0.96">
<path fill-rule="evenodd" clip-rule="evenodd" d="M132.038 148.82C146.81 149.258 162.763 143.115 166.068 133.361C166.068 133.361 161.481 125.091 163.269 118.61L170.351 122.897C171.196 119.883 173.18 117.317 175.882 115.741C177.702 118.418 178.393 121.705 177.805 124.888L186 122.694C185.768 125.399 184.787 127.985 183.166 130.162C181.545 132.338 179.35 134.019 176.826 135.014C176.826 135.014 175.039 166.878 139.154 176.093C139.154 176.093 117.738 180.177 114.77 163.401C114.77 163.368 111.802 148.246 132.038 148.82Z" fill="#6F568E"/>
</g>
<path fill-rule="evenodd" clip-rule="evenodd" d="M171.329 125.935C171.748 125.766 172.195 125.682 172.646 125.687C173.097 125.691 173.543 125.785 173.958 125.962C174.796 126.32 175.458 126.996 175.798 127.842C176.138 128.688 176.128 129.634 175.771 130.473C175.413 131.312 174.738 131.974 173.892 132.314C173.047 132.654 172.101 132.645 171.263 132.287C170.425 131.929 169.764 131.253 169.424 130.407C169.084 129.561 169.094 128.615 169.451 127.776C169.808 126.937 170.484 126.275 171.329 125.935Z" fill="#FFC500"/>
<path fill-rule="evenodd" clip-rule="evenodd" d="M25.5645 229.491L39.7632 233.676L44.1139 217.204L61.719 225.947L35.2439 240.697L13 260L11.4332 244.039L24.0806 244.612L25.5645 229.491Z" fill="#0D1013"/>
<path fill-rule="evenodd" clip-rule="evenodd" d="M32.9503 65.3808L54.0967 139.537L37.5708 132.449L45.0918 118.34L27.9926 110.138L38.9199 92.2149L17.0653 83.9115L32.9503 65.3808Z" fill="#0D1013"/>
<path fill-rule="evenodd" clip-rule="evenodd" d="M66.1371 210.015C62.4272 171.536 42.7311 101.43 34.1309 73.6842C32.233 67.6521 30.0152 61.7256 27.4868 55.9298C27.4868 55.9298 123.37 57.1449 130.487 95.6578C130.858 97.7168 129.441 98.1893 129.677 104.062C130.723 128.264 132.038 181.257 131.465 199.146C130.453 226.149 124.719 248.528 93.3204 256.696L55 259.5L6 271.5C16 250.5 31.163 241.541 31.163 241.541C57.6381 224.36 67.9583 228.816 66.1371 210.015Z" fill="#FF6170"/>
<path fill-rule="evenodd" clip-rule="evenodd" d="M93.3205 223.618C96.221 196.615 79.594 110.138 79.594 110.138C64.6533 108.518 65.8 87.3206 88.464 88.4683C117.266 89.9534 126.136 99.7082 129.846 106.324C130.757 130.424 132.038 181.257 131.465 199.146C130.453 226.149 124.72 248.528 93.3205 256.696L56 259.5L15.5 269.5C21.4868 261.628 39.3499 246.78 48 244.5C81 233 91.1958 243.195 93.3205 223.618Z" fill="#FFC500"/>
<path fill-rule="evenodd" clip-rule="evenodd" d="M7.62212 138.12C9.15479 138.462 10.605 139.103 11.8898 140.006C13.1746 140.91 14.2687 142.058 15.1093 143.385L20.7416 137.31C24.1142 143.014 22.1581 152.229 22.1581 152.229C28.0602 160.667 45.0919 162.119 59.2569 157.596C78.346 151.452 79.8299 166.777 79.8299 166.777C81.4488 183.721 59.8303 185.645 59.8303 185.645C22.7315 186.792 12.2089 156.718 12.2089 156.718C9.5153 156.452 6.94822 155.443 4.79292 153.805C2.63761 152.166 0.978508 149.961 -7.62939e-06 147.436L8.46528 147.233C7.02196 144.418 6.71992 141.153 7.62212 138.12Z" fill="#6F568E"/>
<path fill-rule="evenodd" clip-rule="evenodd" d="M14.9745 146.592C15.633 146.667 16.2546 146.935 16.7619 147.362C17.2692 147.789 17.6396 148.355 17.8269 148.992C18.0142 149.628 18.01 150.305 17.8149 150.939C17.6198 151.573 17.2425 152.135 16.73 152.556C16.2175 152.976 15.5925 153.236 14.9332 153.304C14.2739 153.371 13.6094 153.242 13.0228 152.933C12.4362 152.625 11.9533 152.15 11.6347 151.569C11.316 150.987 11.1755 150.324 11.2309 149.664C11.2686 149.213 11.3963 148.775 11.6063 148.375C11.8163 147.975 12.1044 147.622 12.4535 147.335C12.8026 147.049 13.2056 146.835 13.6387 146.708C14.0717 146.58 14.526 146.541 14.9745 146.592Z" fill="#FFC500"/>
<path fill-rule="evenodd" clip-rule="evenodd" d="M106.001 148.516C74.7035 149.495 52.2756 84.3841 52.2756 84.3841L109.812 54.0058C109.812 54.0058 137.266 147.233 106.001 148.516Z" fill="#FF6170"/>
<path fill-rule="evenodd" clip-rule="evenodd" d="M116.389 125.766C115.175 135.386 111.667 142.17 104.349 142.643C96.0521 143.048 88.5312 137.445 82.1569 129.681C68.6664 113.108 60.0663 86.5443 60.0663 86.5443L108.126 59.0689C108.126 59.0689 119.526 101.43 116.389 125.766Z" fill="#4A0006"/>
<path d="M116.389 125.766C115.175 135.386 111.667 142.17 104.349 142.643C96.0523 143.048 88.5313 137.445 82.1571 129.681C82.1571 129.681 95.3777 118.948 116.389 125.766Z" fill="#8E010D"/>
<path fill-rule="evenodd" clip-rule="evenodd" d="M72.0054 46.0737C86.2344 40.6772 101.112 37.1817 116.254 35.6776C116.726 28.6906 120.2 21.0961 125.832 20.9948C128.43 21.1685 130.871 22.2998 132.684 24.1701C134.497 26.0405 135.552 28.5169 135.647 31.1209C136.96 29.44 138.718 28.1625 140.722 27.4343C142.726 26.7061 144.894 26.5567 146.979 27.003C151.768 28.5556 153.252 34.8 150.351 40.9432C149.179 43.1648 147.533 45.1008 145.528 46.6138C145.829 46.9975 146.1 47.4037 146.338 47.8289C154.702 66.8997 156.726 95.759 156.726 95.759C155.984 96.3666 149.609 100.079 132.78 104.062C116.558 107.944 79.5263 116.416 59.7965 98.3243C45.2942 85.0591 33.7599 50.3942 33.7599 50.3942C33.7599 50.3942 58.6835 50.9005 72.0054 46.0737Z" fill="#FF6170"/>
<path fill-rule="evenodd" clip-rule="evenodd" d="M127.417 27.003C129.542 27.3743 130.79 30.3783 130.352 33.5174C129.913 36.6565 127.687 39.0192 125.562 38.648C123.438 38.2767 122.19 35.2726 122.628 32.1335C123.067 28.9944 125.293 26.7667 127.417 27.003Z" fill="#0D1013"/>
<path fill-rule="evenodd" clip-rule="evenodd" d="M145.09 31.9647C146.878 32.7411 147.147 35.3401 145.731 37.8379C144.314 40.3356 141.751 41.652 139.964 40.8419C138.176 40.0319 137.906 37.4666 139.323 34.9688C140.739 32.471 143.303 31.1547 145.09 31.9647Z" fill="#0D1013"/>
<path fill-rule="evenodd" clip-rule="evenodd" d="M36.7616 26.6317C39.4537 25.8785 42.2689 25.6697 45.0426 26.0175C47.8163 26.3652 50.493 27.2624 52.9164 28.6569C54.5475 24.6901 57.3482 21.3152 60.945 18.9822C64.5417 16.6492 68.7637 15.469 73.0478 15.599C77.3319 15.729 81.4747 17.1629 84.9236 19.7096C88.3726 22.2563 90.9639 25.7948 92.352 29.8532C93.7401 33.9116 93.859 38.297 92.6929 42.4248C91.5268 46.5526 89.1311 50.2265 85.8252 52.9567C82.5194 55.6869 78.4604 57.3436 74.1896 57.7059C69.9189 58.0683 65.6392 57.119 61.9213 54.9847C60.566 58.3086 58.3867 61.2322 55.5893 63.4794C52.7918 65.7267 49.4683 67.2235 45.9325 67.8286C42.3967 68.4338 38.7651 68.1273 35.3804 66.9382C31.9958 65.749 28.9697 63.7164 26.5877 61.0321C24.2057 58.3478 22.5464 55.1003 21.7663 51.5961C20.9863 48.092 21.1111 44.4467 22.1292 41.0042C23.1473 37.5618 25.0251 34.4357 27.5852 31.9211C30.1453 29.4064 33.3034 27.586 36.7616 26.6317Z" fill="#6F568E"/>
<path fill-rule="evenodd" clip-rule="evenodd" d="M38.7515 33.7537C41.3142 33.0665 44.0225 33.1508 46.5376 33.9961C49.0526 34.8414 51.2628 36.4101 52.8916 38.506C54.5205 40.6019 55.4957 43.132 55.6952 45.7797C55.8947 48.4274 55.3097 51.0753 54.0134 53.392C52.7171 55.7087 50.767 57.5914 48.4071 58.8047C46.0472 60.018 43.3822 60.5079 40.7455 60.2131C38.1088 59.9184 35.6175 58.8521 33.5832 57.1477C31.5489 55.4433 30.0619 53.1763 29.3082 50.6305C28.7965 48.9019 28.6359 47.0882 28.8358 45.2965C29.0358 43.5048 29.5922 41.7713 30.4724 40.1983C31.3526 38.6253 32.5386 37.2446 33.9605 36.1378C35.3825 35.0309 37.0115 34.2203 38.7515 33.7537Z" fill="white"/>
<path fill-rule="evenodd" clip-rule="evenodd" d="M68.8352 23.6276C71.4048 22.9356 74.1215 23.0196 76.6435 23.8691C79.1655 24.7185 81.3802 26.2955 83.0089 28.4015C84.6376 30.5076 85.6076 33.0487 85.7969 35.7051C85.9861 38.3615 85.3862 41.0146 84.0725 43.3306C82.7588 45.6467 80.7901 47.5221 78.414 48.7211C76.0379 49.9201 73.3606 50.389 70.7189 50.0688C68.0772 49.7487 65.5891 48.6538 63.5676 46.9219C61.5461 45.19 60.0815 42.8985 59.3581 40.3356C58.8727 38.6158 58.7332 36.8165 58.9479 35.0423C59.1626 33.2681 59.7271 31.5542 60.6086 29.9999C61.4902 28.4457 62.6713 27.0821 64.0835 25.9883C65.4957 24.8944 67.1108 24.092 68.8352 23.6276Z" fill="white"/>
<path fill-rule="evenodd" clip-rule="evenodd" d="M25.2946 9.5861C28.6672 9.11355 31.4665 9.99114 32.0398 12.2189C32.6132 14.4466 30.3873 16.8769 28.2962 17.4844C25.279 19.4058 22.4948 21.6712 19.9996 24.2352C19.2333 24.8025 18.3053 25.1087 17.3521 25.1087C16.3989 25.1087 15.4709 24.8025 14.7046 24.2352C14.151 23.4762 13.8225 22.5763 13.7569 21.6389C13.6913 20.7016 13.8912 19.7647 14.3336 18.9358C15.244 16.5908 16.7222 14.5088 18.6354 12.8769C20.5485 11.2449 22.8368 10.1141 25.2946 9.5861Z" fill="#0D1013"/>
<path fill-rule="evenodd" clip-rule="evenodd" d="M73.0509 0.202604C75.5819 -0.0667713 78.1401 0.298136 80.4951 1.26446C82.85 2.23079 84.9279 3.76819 86.5414 5.73819C87.2323 6.38221 87.7236 7.21143 87.9568 8.12704C88.19 9.04266 88.1553 10.0061 87.8567 10.9025C87.318 11.6942 86.5352 12.2877 85.6278 12.5924C84.7205 12.8971 83.7384 12.8963 82.8315 12.5902C79.622 10.9135 76.2258 9.62196 72.7137 8.74226C70.5215 8.74226 67.5198 7.22335 67.4187 4.89435C67.3175 2.56536 69.5771 0.877676 73.0509 0.202604Z" fill="#0D1013"/>
<path fill-rule="evenodd" clip-rule="evenodd" d="M47.7181 41.227C48.9398 40.8928 50.2329 40.9283 51.4344 41.3291C52.6359 41.73 53.6917 42.4781 54.4686 43.4791C55.2455 44.4801 55.7086 45.689 55.7994 46.9532C55.8902 48.2174 55.6047 49.4802 54.9789 50.5822C54.3531 51.6841 53.4151 52.5757 52.2833 53.1445C51.1515 53.7132 49.8767 53.9336 48.6199 53.7777C47.363 53.6218 46.1805 53.0967 45.2217 52.2687C44.2628 51.4406 43.5706 50.3468 43.2325 49.1253C43.0074 48.312 42.9449 47.4621 43.0486 46.6245C43.1523 45.7869 43.4202 44.978 43.8369 44.2442C44.2537 43.5104 44.811 42.8662 45.477 42.3484C46.143 41.8307 46.9046 41.4496 47.7181 41.227Z" fill="#0D1013"/>
<path fill-rule="evenodd" clip-rule="evenodd" d="M78.7181 32.227C79.9398 31.8928 81.2329 31.9283 82.4344 32.3291C83.6359 32.73 84.6917 33.4781 85.4686 34.4791C86.2455 35.4801 86.7086 36.689 86.7994 37.9532C86.8902 39.2174 86.6047 40.4802 85.9789 41.5822C85.3531 42.6841 84.4151 43.5757 83.2833 44.1445C82.1515 44.7132 80.8767 44.9336 79.6199 44.7777C78.363 44.6218 77.1805 44.0967 76.2217 43.2687C75.2628 42.4406 74.5707 41.3468 74.2326 40.1253C74.0074 39.312 73.9449 38.4621 74.0486 37.6245C74.1523 36.7869 74.4202 35.978 74.837 35.2442C75.2537 34.5104 75.811 33.8662 76.477 33.3484C77.1431 32.8307 77.9046 32.4496 78.7181 32.227Z" fill="#0D1013"/>
<path fill-rule="evenodd" clip-rule="evenodd" d="M128.092 106.729L129.171 107.1L120.706 119.319L110.251 110.881L99.5935 121.007L90.9596 110.881L79.088 119.758L71.4996 105.446L99.5598 109.463L128.092 106.729Z" fill="white"/>
<path d="M60.5047 94.5102C62.2028 96.4684 64.0893 98.2547 66.137 99.8432C73.6579 105.278 93.118 112.838 130.217 104.704C130.52 104.704 130.453 107.843 130.217 107.877C123.418 109.353 116.519 110.323 109.576 110.779C101.712 111.514 93.7879 111.321 85.968 110.206C78.2911 109.278 70.9417 106.548 64.5182 102.24C62.2965 100.499 60.2416 98.5557 58.38 96.4341C58.1838 96.1331 58.1033 95.771 58.1535 95.4151C58.2037 95.0593 58.3811 94.7337 58.6529 94.4987C58.9247 94.2638 59.2725 94.1355 59.6316 94.1376C59.9907 94.1397 60.3369 94.2721 60.6059 94.5102H60.5047Z" fill="white"/>
<path fill-rule="evenodd" clip-rule="evenodd" d="M80.077 228.566C86.8644 238.298 89.3575 250.202 90 262.26C90 263.354 90 277.688 90 279H66.2691C67.3419 269.558 65.3002 244.35 66.2691 237.825C67.861 228.201 73.571 220.072 80.077 228.566Z" fill="#6F568E"/>
<path fill-rule="evenodd" clip-rule="evenodd" d="M100.409 278.746L89.4784 269.32L88.7731 278.857L100.409 278.746Z" fill="#0D1013"/>
</svg>
